<svg id="Layer_1" data-name="Layer 1" xmlns="http://www.w3.org/2000/svg" viewBox="0 0 400 400"><defs><style>.cls-1{fill:#1d2d60;}.cls-1,.cls-2,.cls-3,.cls-4,.cls-5,.cls-6{stroke:#fff;stroke-miterlimit:10;}.cls-1,.cls-2{stroke-width:1.76px;}.cls-2{fill:#40cee2;}.cls-3{fill:#a0d9cb;}.cls-3,.cls-4{stroke-width:2.34px;}.cls-4{fill:#ffbe67;}.cls-5{fill:#c62127;}.cls-5,.cls-6{stroke-width:2.93px;}.cls-6{fill:#c94e15;}</style></defs><path class="cls-1" d="M312.07,56.31c4.21-4.21,5-10.3,1.87-13.46l-2.22-2.22L300.31,29.1s-1.87-1.75-3.39-.17.29,3.45.29,3.45l2.28,2.34L291,26.12s-1.35-1.35-2.52-.18l-9.83,9.89s-1.11,1.05,1.23,3.45l18.73,18.9c3.27,3.22,9.24,2.34,13.51-1.87Z"/><path class="cls-1" d="M300.6,35.71l-9.48-9.53s-2.51-2.75-4.21-1,1.52,4.39,1.52,4.39L297.79,39"/><path class="cls-1" d="M297.5,38.7,288,29.16s-2.51-2.75-4.21-1,1.52,4.38,1.52,4.38L294.69,42"/><path class="cls-1" d="M294.58,41.8l-9.48-9.54s-2.52-2.69-4.22-1,1.53,4.39,1.53,4.39l9.36,9.42"/><path class="cls-1" d="M291.65,45l-9.48-9.54s-2.51-2.75-4.21-1,1.52,4.39,1.52,4.39l9.36,9.42"/><path class="cls-1" d="M316.11,56.43c4.21-4.22,5-10.3,1.87-13.46l-2.22-2.22L304.35,29.22s-1.87-1.76-3.4-.18.3,3.46.3,3.46l2.28,2.34L295,26.24s-1.35-1.35-2.52-.12L282.64,36s-1.11,1.05,1.23,3.45l18.78,18.9c3.28,3.22,9.25,2.34,13.46-1.93Z"/><path class="cls-1" d="M304.64,35.83l-9.48-9.54s-2.51-2.69-4.21-1,1.52,4.39,1.52,4.39l9.36,9.42"/><path class="cls-1" d="M301.6,38.87l-9.48-9.53s-2.52-2.75-4.21-1,1.52,4.39,1.52,4.39l9.36,9.42"/><path class="cls-1" d="M298.67,41.92l-9.48-9.54s-2.51-2.75-4.21-1,1.52,4.39,1.52,4.39l9.36,9.42"/><path class="cls-1" d="M295.69,45.08l-9.48-9.54s-2.52-2.75-4.21-1,1.52,4.39,1.52,4.39l9.36,9.42"/><path class="cls-1" d="M330.68,56.31c4.21-4.21,5-10.3,1.87-13.46l-2.22-2.22L318.92,29.1s-1.82-1.75-3.4-.17.3,3.45.3,3.45l2.28,2.34-8.54-8.6s-1.35-1.35-2.52-.18l-9.77,9.89s-1.11,1.05,1.23,3.45l18.78,18.9c3.16,3.22,9.18,2.34,13.4-1.87Z"/><path class="cls-1" d="M319.21,35.71l-9.48-9.53s-2.52-2.75-4.21-1S307,29.57,307,29.57L316.4,39"/><path class="cls-1" d="M316.11,38.7l-9.48-9.54s-2.52-2.75-4.21-1,1.52,4.38,1.52,4.38L313.3,42"/><path class="cls-1" d="M313.18,41.8l-9.48-9.54s-2.51-2.69-4.21-1S301,35.66,301,35.66l9.36,9.42"/><path class="cls-1" d="M310.2,45l-9.48-9.54s-2.52-2.75-4.21-1S298,38.82,298,38.82l9.36,9.42"/><path class="cls-1" d="M334.72,56.43c4.21-4.22,5-10.3,1.87-13.46l-2.23-2.22L323,29.22s-1.87-1.76-3.39-.18.29,3.46.29,3.46l2.29,2.34-8.49-8.6s-1.34-1.35-2.51-.12L301.36,36s-1.11,1,1.23,3.45l18.73,18.9C324.53,61.52,330.5,60.64,334.72,56.43Z"/><path class="cls-1" d="M323.25,35.83l-9.48-9.54s-2.52-2.69-4.21-1,1.52,4.39,1.52,4.39l9.36,9.42"/><path class="cls-1" d="M320.2,38.87l-9.47-9.59s-2.52-2.75-4.22-1S308,32.67,308,32.67l9.37,9.42"/><path class="cls-1" d="M317.28,41.92l-9.48-9.54s-2.52-2.75-4.21-1,1.52,4.39,1.52,4.39l9.36,9.42"/><path class="cls-1" d="M314.29,45.08l-9.47-9.54s-2.52-2.75-4.22-1,1.52,4.39,1.52,4.39l9.37,9.42"/><path class="cls-1" d="M349.23,56.31c4.21-4.21,5-10.3,1.87-13.46l-2.23-2.22L337.52,29.1s-1.87-1.75-3.39-.17.29,3.45.29,3.45l2.28,2.34-8.54-8.6s-1.34-1.35-2.51-.18l-9.83,9.89s-1.12,1.05,1.22,3.45l18.79,18.9c3.21,3.22,9.24,2.34,13.4-1.87Z"/><path class="cls-1" d="M337.76,35.71l-9.48-9.59s-2.52-2.75-4.21-1,1.52,4.39,1.52,4.39L335,38.93"/><path class="cls-1" d="M334.72,38.7l-9.48-9.54s-2.52-2.75-4.22-1,1.52,4.38,1.52,4.38L331.91,42"/><path class="cls-1" d="M331.79,41.8l-9.48-9.54s-2.52-2.69-4.21-1,1.52,4.39,1.52,4.39L329,45.08"/><path class="cls-1" d="M328.81,45l-9.48-9.54s-2.52-2.75-4.22-1,1.53,4.39,1.53,4.39L326,48.24"/><path class="cls-1" d="M353.32,56.43c4.21-4.22,5-10.3,1.87-13.46L353,40.75,341.56,29.22s-1.81-1.76-3.39-.18.29,3.46.29,3.46l2.28,2.34-8.54-8.6s-1.35-1.35-2.52-.12L319.85,36s-1.11,1.05,1.23,3.45l18.78,18.9c3.28,3.16,9.25,2.28,13.46-1.93Z"/><path class="cls-1" d="M341.85,35.83l-9.48-9.59s-2.51-2.7-4.21-1,1.52,4.39,1.52,4.39L339,39.05"/><path class="cls-1" d="M338.81,38.87l-9.48-9.53s-2.51-2.75-4.21-1,1.52,4.39,1.52,4.39L336,42.15"/><path class="cls-1" d="M335.83,41.92l-9.48-9.54s-2.52-2.75-4.21-1,1.52,4.39,1.52,4.39L333,45.19"/><path class="cls-1" d="M332.9,45.08l-9.48-9.54s-2.51-2.75-4.21-1,1.52,4.39,1.52,4.39l9.36,9.42"/><path class="cls-1" d="M367.83,56.31c4.22-4.21,5-10.3,1.87-13.46l-2.22-2.22L356.07,29.1s-1.87-1.75-3.39-.17.29,3.45.29,3.45l2.28,2.34-8.54-8.6s-1.35-1.35-2.52-.18l-9.83,9.89s-1.11,1.05,1.23,3.45l18.73,18.9c3.27,3.22,9.3,2.34,13.51-1.87Z"/><path class="cls-1" d="M356.36,35.71l-9.47-9.53s-2.52-2.75-4.22-1,1.52,4.39,1.52,4.39L353.56,39"/><path class="cls-1" d="M353.32,38.7l-9.48-9.54s-2.51-2.75-4.21-1,1.52,4.38,1.52,4.38L350.51,42"/><path class="cls-1" d="M350.4,41.8l-9.48-9.54s-2.52-2.69-4.22-1,1.53,4.39,1.53,4.39l9.36,9.42"/><path class="cls-1" d="M347.41,45l-9.48-9.54s-2.51-2.75-4.21-1,1.52,4.39,1.52,4.39l9.36,9.42"/><path class="cls-1" d="M371.93,56.43c4.21-4.22,5-10.3,1.87-13.46l-2.22-2.22L360.17,29.22s-1.87-1.76-3.4-.18.3,3.46.3,3.46l2.28,2.34-8.54-8.6s-1.35-1.35-2.52-.12L338.46,36s-1.11,1.05,1.23,3.45l18.78,18.9c3.22,3.16,9.25,2.28,13.46-1.93Z"/><path class="cls-1" d="M360.46,35.83,351,26.29s-2.51-2.69-4.21-1,1.52,4.39,1.52,4.39l9.36,9.42"/><path class="cls-1" d="M357.36,38.87l-9.48-9.53s-2.52-2.75-4.21-1,1.52,4.39,1.52,4.39l9.36,9.42"/><path class="cls-1" d="M354.43,41.92,345,32.38s-2.51-2.75-4.21-1,1.52,4.39,1.52,4.39l9.36,9.42"/><path class="cls-1" d="M351.45,45.08,342,35.54s-2.52-2.75-4.21-1,1.52,4.39,1.52,4.39l9.36,9.42"/><path class="cls-2" d="M292.06,90.36c5.5-5.56,6.61-13.45,2.46-17.67l-2.87-2.92-15-15.1s-2.4-2.28-4.44-.23.4,4.5.4,4.5L275.68,62,264.5,50.75s-1.75-1.75-3.27-.17l-12.88,13s-1.46,1.34,1.64,4.5l24.58,24.75c4.15,4.16,12,3,17.49-2.46Z"/><path class="cls-2" d="M277,63.33l-12.4-12.52s-3.28-3.57-5.56-1.29,2,5.74,2,5.74L273.28,67.6"/><path class="cls-2" d="M273,67.31l-12.4-12.52s-3.28-3.57-5.56-1.29,2,5.74,2,5.74L269.3,71.58"/><path class="cls-2" d="M269.18,71.35l-12.4-12.52s-3.28-3.57-5.56-1.29,2,5.73,2,5.73l12.23,12.35"/><path class="cls-2" d="M265.32,75.44l-12.4-12.52s-3.34-3.57-5.56-1.29,2,5.74,2,5.74l12.23,12.34"/><path class="cls-2" d="M297.38,90.48c5.5-5.56,6.62-13.46,2.46-17.67L297,69.88l-15-15s-2.4-2.28-4.45-.24.41,4.51.41,4.51l3,3L269.83,50.93s-1.76-1.76-3.28-.18l-12.87,13s-1.47,1.35,1.64,4.51L279.89,93c4.15,4.15,12,3,17.49-2.52Z"/><path class="cls-2" d="M282.41,63.51,270,51s-3.27-3.57-5.56-1.29,2,5.73,2,5.73l12.23,12.35"/><path class="cls-2" d="M278.37,67.49,266,55s-3.27-3.57-5.55-1.28,2,5.73,2,5.73l12.22,12.35"/><path class="cls-2" d="M274.51,71.52,262.1,59s-3.27-3.57-5.56-1.29,2,5.74,2,5.74l12.23,12.34"/><path class="cls-2" d="M270.65,75.62,258.24,63.1s-3.28-3.57-5.56-1.29,2,5.73,2,5.73L266.9,79.89"/><path class="cls-2" d="M316.4,90.36c5.5-5.56,6.61-13.45,2.46-17.67L316,69.77l-15-15.1s-2.4-2.28-4.44-.23.41,4.5.41,4.5L300,62,288.84,50.75s-1.75-1.75-3.27-.17l-12.88,13s-1.46,1.34,1.64,4.5l24.58,24.75c4.15,4.16,12,3,17.49-2.46Z"/><path class="cls-2" d="M301.42,63.33,289,50.81s-3.34-3.57-5.56-1.29,2,5.74,2,5.74L297.68,67.6"/><path class="cls-2" d="M297.38,67.31,285,54.79s-3.28-3.57-5.56-1.29,2,5.74,2,5.74l12.23,12.34"/><path class="cls-2" d="M293.52,71.35l-12.4-12.52s-3.28-3.57-5.56-1.29,2,5.73,2,5.73l12.23,12.35"/><path class="cls-2" d="M289.66,75.44l-12.4-12.52s-3.28-3.57-5.56-1.29,2,5.74,2,5.74l12.23,12.34"/><path class="cls-2" d="M321.78,90.48c5.5-5.56,6.62-13.46,2.46-17.67l-2.87-2.93-15-15s-2.4-2.28-4.45-.24.41,4.51.41,4.51l3,3L294.23,50.93s-1.76-1.76-3.28-.18l-12.87,13s-1.47,1.35,1.63,4.51L304.29,93c4.1,4.15,11.94,3,17.49-2.52Z"/><path class="cls-2" d="M306.75,63.51,294.34,51s-3.27-3.57-5.56-1.29,2,5.73,2,5.73L303,67.78"/><path class="cls-2" d="M302.71,67.49,290.31,55s-3.28-3.57-5.56-1.28,2,5.73,2,5.73L299,71.76"/><path class="cls-2" d="M298.85,71.52,286.44,59s-3.27-3.57-5.56-1.29,2,5.74,2,5.74L295.1,75.79"/><path class="cls-2" d="M295,75.62,282.58,63.1s-3.33-3.57-5.56-1.29,2,5.73,2,5.73l12.23,12.35"/><path class="cls-2" d="M340.8,90.36c5.5-5.56,6.61-13.45,2.46-17.67l-2.87-2.92-15-15.1s-2.4-2.28-4.45-.23.41,4.5.41,4.5L324.42,62,313.24,50.75S311.49,49,310,50.58l-12.87,13s-1.46,1.34,1.64,4.5l24.58,24.75c4.15,4.16,12,3,17.49-2.46Z"/><path class="cls-2" d="M325.76,63.33l-12.4-12.52s-3.34-3.57-5.56-1.29,2,5.74,2,5.74L322,67.6"/><path class="cls-2" d="M321.73,67.31,309.32,54.79s-3.28-3.57-5.56-1.29,2,5.74,2,5.74L318,71.58"/><path class="cls-2" d="M317.92,71.35,305.46,58.83s-3.28-3.57-5.56-1.29,2,5.73,2,5.73l12.23,12.35"/><path class="cls-2" d="M314,75.44,301.6,62.92s-3.28-3.57-5.56-1.29,2,5.74,2,5.74l12.23,12.34"/><path class="cls-2" d="M346.12,90.48c5.5-5.56,6.62-13.46,2.46-17.67l-2.86-2.93-15-15s-2.4-2.28-4.45-.24.41,4.51.41,4.51l3,3L318.57,50.93s-1.76-1.76-3.28-.18l-12.87,13s-1.47,1.35,1.64,4.51L328.63,93c4.15,4.15,12,3,17.49-2.52Z"/><path class="cls-2" d="M331.09,63.51,318.68,51s-3.33-3.57-5.56-1.29,2,5.73,2,5.73l12.23,12.35"/><path class="cls-2" d="M327.05,67.49,314.65,55s-3.28-3.57-5.56-1.28,2,5.73,2,5.73l12.23,12.35"/><path class="cls-2" d="M323.25,71.52,310.84,59s-3.27-3.57-5.56-1.29,2,5.74,2,5.74L319.5,75.79"/><path class="cls-2" d="M319.33,75.62,306.92,63.1s-3.27-3.57-5.56-1.29,2,5.73,2,5.73l12.23,12.35"/><path class="cls-2" d="M365.14,90.36c5.5-5.56,6.61-13.45,2.46-17.67l-2.87-2.92-15-15.1s-2.4-2.28-4.44-.23.41,4.5.41,4.5l3,3.05L337.58,50.75s-1.75-1.75-3.27-.17l-12.88,13s-1.46,1.34,1.64,4.5l24.58,24.75c4.15,4.16,12,3,17.49-2.46Z"/><path class="cls-2" d="M350.1,63.33,337.7,50.81s-3.28-3.57-5.56-1.29,2,5.74,2,5.74L346.42,67.6"/><path class="cls-2" d="M346.12,67.31l-12.4-12.52s-3.28-3.57-5.56-1.29,2,5.74,2,5.74l12.23,12.34"/><path class="cls-2" d="M342.26,71.35l-12.4-12.52s-3.28-3.57-5.56-1.29,2,5.73,2,5.73l12.23,12.35"/><path class="cls-2" d="M338.4,75.44,325.94,62.92s-3.28-3.57-5.56-1.29,2,5.74,2,5.74L334.6,79.71"/><path class="cls-2" d="M370.47,90.48c5.5-5.56,6.61-13.46,2.45-17.67l-2.86-2.93-15-15s-2.4-2.28-4.45-.24.41,4.51.41,4.51l3,3L342.91,50.93s-1.76-1.76-3.28-.18l-12.87,13s-1.47,1.35,1.64,4.51L353,93c4.15,4.15,12,3,17.5-2.52Z"/><path class="cls-2" d="M355.43,63.51,343,51s-3.27-3.57-5.55-1.29,2,5.73,2,5.73l12.23,12.35"/><path class="cls-2" d="M351.45,67.49,339,55s-3.27-3.57-5.55-1.28,2,5.73,2,5.73L347.7,71.76"/><path class="cls-2" d="M347.59,71.52,335.18,59s-3.27-3.57-5.56-1.29,2,5.74,2,5.74l12.23,12.34"/><path class="cls-2" d="M343.73,75.62,331.32,63.1s-3.28-3.57-5.56-1.29,2,5.73,2,5.73L340,79.89"/><path class="cls-3" d="M269.77,134.54c7-7,8.31-17,3-22.29l-3.63-3.63-18.9-19s-3-2.92-5.61-.29.52,5.68.52,5.68L249,98.85,234.89,84.69s-2.22-2.23-4.15-.24L214.47,100.9s-1.87,1.75,2.05,5.67l31.07,31.19c5.33,5.2,15.22,3.8,22.18-3.22Z"/><path class="cls-3" d="M250.75,100.49,235,84.69s-4.15-4.51-7-1.64,2.52,7.25,2.52,7.25L246,105.87"/><path class="cls-3" d="M245.72,105.46,230,89.66s-4.15-4.5-7-1.64,2.51,7.26,2.51,7.26L241,110.84"/><path class="cls-3" d="M240.86,110.61l-15.74-15.8s-4.15-4.51-7-1.64,2.52,7.26,2.52,7.26L236.12,116"/><path class="cls-3" d="M236,115.82,220.21,100s-4.16-4.51-7-1.64,2.51,7.25,2.51,7.25l15.51,15.57"/><path class="cls-3" d="M276.5,134.71c7-7,8.31-17,3-22.29l-3.63-3.63-19-19s-3-2.93-5.61-.29.52,5.67.52,5.67L255.67,99l-14.1-14.16s-2.23-2.22-4.16-.23l-16.27,16.44s-1.87,1.76,2.05,5.68l31.07,31.18c5.39,5.21,15.33,3.81,22.24-3.22Z"/><path class="cls-3" d="M257.48,100.66l-15.74-15.8s-4.15-4.5-7-1.64,2.52,7.26,2.52,7.26L252.74,106"/><path class="cls-3" d="M252.45,105.69,236.71,89.9s-4.16-4.51-7-1.64,2.51,7.19,2.51,7.19L247.71,111"/><path class="cls-3" d="M247.59,110.78,231.85,95s-4.15-4.51-7-1.64,2.52,7.25,2.52,7.25l15.5,15.57"/><path class="cls-3" d="M242.68,116l-15.74-15.8s-4.16-4.5-7-1.64,2.51,7.26,2.51,7.26l15.51,15.56"/><path class="cls-3" d="M300.54,134.48c7-7,8.31-17,3-22.29L300,108.56l-19-19s-3-2.86-5.62-.29.53,5.68.53,5.68l3.8,3.86-14.1-14.16s-2.22-2.22-4.15-.23l-16.27,16.44s-1.87,1.75,2.05,5.67l31.07,31.19c5.38,5.21,15.33,3.8,22.23-3.22Z"/><path class="cls-3" d="M281.53,100.43l-15.74-15.8s-4.16-4.51-7-1.64,2.51,7.26,2.51,7.26l15.51,15.56"/><path class="cls-3" d="M276.44,105.4,260.7,89.6s-4.16-4.5-7-1.64,2.51,7.26,2.51,7.26l15.51,15.56"/><path class="cls-3" d="M271.64,110.55,255.9,94.75s-4.15-4.5-7-1.64,2.52,7.2,2.52,7.2l15.5,15.56"/><path class="cls-3" d="M266.73,115.76,251,100s-4.16-4.51-7-1.64,2.52,7.26,2.52,7.26L262,121.14"/><path class="cls-3" d="M307.27,134.66c7-7,8.31-17,3.05-22.3l-3.63-3.62-18.9-19s-3-2.93-5.62-.29.53,5.67.53,5.67L286.5,99,272.4,84.8s-2.22-2.22-4.15-.23L252,101s-1.87,1.76,2.05,5.68l31.07,31.18c5.32,5.21,15.21,3.81,22.17-3.21Z"/><path class="cls-3" d="M288.26,100.6,272.52,84.8s-4.16-4.5-7-1.63S268,90.42,268,90.42L283.52,106"/><path class="cls-3" d="M283.17,105.63,267.43,89.84s-4.16-4.51-7-1.64,2.51,7.25,2.51,7.25L278.43,111"/><path class="cls-3" d="M278.37,110.73l-15.74-15.8s-4.15-4.51-7-1.64,2.51,7.25,2.51,7.25l15.51,15.57"/><path class="cls-3" d="M273.45,115.93l-15.74-15.8s-4.15-4.5-7-1.63,2.52,7.19,2.52,7.19l15.5,15.57"/><path class="cls-3" d="M331.32,134.42c7-7,8.31-17,3-22.29l-3.62-3.63-18.9-19s-3-2.87-5.62-.3.53,5.68.53,5.68l3.8,3.86-14.1-14.16s-2.22-2.22-4.16-.23L276,100.78s-1.87,1.75,2.05,5.67l31.07,31.19c5.26,5.21,15.21,3.8,22.17-3.22Z"/><path class="cls-3" d="M312.31,100.37l-15.74-15.8s-4.16-4.5-7-1.64,2.52,7.26,2.52,7.26l15.51,15.56"/><path class="cls-3" d="M307.21,105.4,291.48,89.6s-4.16-4.5-7-1.64S287,95.22,287,95.22l15.51,15.56"/><path class="cls-3" d="M302.36,110.49l-15.74-15.8s-4.16-4.5-7-1.64,2.51,7.26,2.51,7.26l15.51,15.56"/><path class="cls-3" d="M297.5,115.7,281.76,99.9s-4.15-4.5-7-1.64,2.52,7.26,2.52,7.26l15.5,15.56"/><path class="cls-3" d="M338.05,134.6c7-7,8.31-17,3-22.3l-3.62-3.62-19-19s-3.05-2.92-5.62-.29.53,5.67.53,5.67l3.8,3.87-14.1-14.22s-2.22-2.23-4.16-.24L282.7,100.9s-1.87,1.75,2.05,5.67l31.07,31.19c5.32,5.26,15.27,3.86,22.23-3.16Z"/><path class="cls-3" d="M319,100.54,303.29,84.75s-4.15-4.51-7-1.64,2.52,7.19,2.52,7.19l15.5,15.57"/><path class="cls-3" d="M313.94,105.58,298.2,89.78s-4.15-4.51-7-1.64,2.52,7.26,2.52,7.26L309.2,111"/><path class="cls-3" d="M309.09,110.67l-15.74-15.8s-4.16-4.51-7-1.64,2.51,7.26,2.51,7.26l15.51,15.56"/><path class="cls-3" d="M304.23,115.87l-15.74-15.79s-4.15-4.51-7-1.64,2.52,7.25,2.52,7.25l15.5,15.57"/><path class="cls-3" d="M362,134.36c7-7,8.31-17,3-22.29l-3.63-3.63-18.95-19s-3.05-2.93-5.62-.3.53,5.68.53,5.68l3.8,3.86-14.1-14.16s-2.22-2.22-4.16-.23l-16.26,16.44s-1.87,1.76,2.05,5.68l31.07,31.18c5.38,5.21,15.27,3.8,22.23-3.22Z"/><path class="cls-3" d="M343,100.31l-15.74-15.8s-4.15-4.5-7-1.64,2.52,7.26,2.52,7.26l15.5,15.56"/><path class="cls-3" d="M338,105.34l-15.74-15.8s-4.15-4.5-7-1.63,2.52,7.19,2.52,7.19l15.5,15.57"/><path class="cls-3" d="M333.14,110.43,317.4,94.63s-4.16-4.5-7-1.63,2.52,7.25,2.52,7.25l15.51,15.57"/><path class="cls-3" d="M328.22,115.64l-15.74-15.8s-4.15-4.5-7-1.64,2.52,7.26,2.52,7.26l15.5,15.5"/><path class="cls-3" d="M368.77,134.54c7-7,8.31-17,3-22.29l-3.63-3.63-18.95-19s-3.05-2.92-5.62-.29.53,5.68.53,5.68l3.8,3.86-14.1-14.16s-2.23-2.23-4.16-.24L313.42,100.9s-1.88,1.75,2,5.67l31.07,31.19c5.39,5.2,15.28,3.8,22.24-3.22Z"/><path class="cls-3" d="M349.75,100.49,334,84.69s-4.15-4.51-7-1.64,2.52,7.25,2.52,7.25L345,105.87"/><path class="cls-3" d="M344.72,105.52,329,89.72s-4.15-4.51-7-1.64,2.52,7.26,2.52,7.26L340,110.9"/><path class="cls-3" d="M339.86,110.61l-15.74-15.8s-4.15-4.51-7-1.64,2.52,7.26,2.52,7.26L335.12,116"/><path class="cls-3" d="M335,115.82,319.21,100s-4.15-4.51-7-1.64,2.51,7.25,2.51,7.25l15.51,15.57"/><path class="cls-4" d="M236.77,191.24c9.13-9.19,10.94-22.3,4-29.26l-4.73-4.8-24.75-24.92s-4-3.81-7.38-.41.7,7.43.7,7.43l5,5L191.13,125.7s-2.87-2.92-5.44-.35l-21.3,21.48s-2.46,2.28,2.69,7.49l40.67,41c6.9,7,19.89,5.15,29-4Z"/><path class="cls-4" d="M212,146.53l-20.6-20.71s-5.5-5.91-9.18-2.16,3.27,9.47,3.27,9.47l20.25,20.43"/><path class="cls-4" d="M205.29,153.09l-20.6-20.72s-5.5-5.91-9.18-2.16,3.27,9.48,3.27,9.48L199,160.11"/><path class="cls-4" d="M198.91,159.76,178.31,139s-5.5-5.91-9.18-2.16,3.28,9.48,3.28,9.48l20.24,20.42"/><path class="cls-4" d="M192.47,166.6l-20.59-20.71s-5.5-5.91-9.19-2.16S166,153.2,166,153.2l20.24,20.42"/><path class="cls-4" d="M245.6,191.47c9.13-9.19,10.94-22.29,4-29.26l-4.74-4.79-24.75-24.93s-4-3.8-7.37-.41.7,7.43.7,7.43l5,5L200,125.94s-2.86-2.87-5.44-.35l-21.3,21.53s-2.45,2.28,2.69,7.49l40.67,41c6.85,6.9,19.84,5.09,29-4.1Z"/><path class="cls-4" d="M220.74,146.77l-20.6-20.71s-5.5-5.91-9.19-2.17,3.28,9.48,3.28,9.48l20.24,20.42"/><path class="cls-4" d="M214.12,153.38l-20.59-20.71s-5.5-5.91-9.19-2.17,3.28,9.48,3.28,9.48l20.24,20.42"/><path class="cls-4" d="M207.75,160.05l-20.6-20.71s-5.5-5.91-9.19-2.17,3.28,9.48,3.28,9.48l20.25,20.42"/><path class="cls-4" d="M201.31,166.84l-20.6-20.72s-5.5-5.91-9.18-2.16,3.27,9.48,3.27,9.48l20.25,20.42"/><path class="cls-4" d="M277.08,191.24c9.13-9.19,10.94-22.3,4-29.26l-4.74-4.8-24.75-24.92s-4-3.81-7.37-.41.7,7.43.7,7.43l5,5L231.5,125.7s-2.87-2.92-5.44-.35l-21.3,21.48s-2.46,2.28,2.69,7.49l40.67,41c6.9,7,19.89,5.15,29-4Z"/><path class="cls-4" d="M252.27,146.53l-20.59-20.71s-5.5-5.91-9.19-2.16,3.28,9.47,3.28,9.47L246,153.56"/><path class="cls-4" d="M245.6,153.09,225,132.37s-5.5-5.91-9.19-2.16,3.28,9.48,3.28,9.48l20.24,20.42"/><path class="cls-4" d="M239.23,159.76,218.63,139s-5.5-5.91-9.19-2.16,3.28,9.48,3.28,9.48L233,166.78"/><path class="cls-4" d="M232.79,166.6l-20.6-20.71s-5.5-5.91-9.18-2.16,3.27,9.47,3.27,9.47l20.25,20.42"/><path class="cls-4" d="M285.92,191.47c9.12-9.19,10.94-22.29,4-29.26l-4.74-4.79-24.75-24.93s-4-3.8-7.37-.41.7,7.43.7,7.43l5,5-18.49-18.6s-2.87-2.87-5.44-.35l-21.3,21.47s-2.46,2.28,2.69,7.49l40.67,41c6.9,7,19.89,5.15,29-4.1v.06Z"/><path class="cls-4" d="M261.05,146.77l-20.54-20.71s-5.5-5.91-9.18-2.17,3.27,9.48,3.27,9.48l20.25,20.42"/><path class="cls-4" d="M254.44,153.38l-20.6-20.71s-5.5-5.91-9.18-2.17S228,140,228,140l20.25,20.42"/><path class="cls-4" d="M248.06,160.05l-20.6-20.71s-5.5-5.91-9.18-2.17,3.27,9.48,3.27,9.48l20.25,20.42"/><path class="cls-4" d="M241.62,166.84,221,146.12s-5.5-5.91-9.19-2.16,3.28,9.48,3.28,9.48l20.24,20.42"/><path class="cls-4" d="M317.4,191.24c9.12-9.19,10.94-22.3,4-29.26l-4.74-4.8-24.75-24.92s-4-3.81-7.37-.41.7,7.43.7,7.43l5,5L271.76,125.7s-2.87-2.92-5.44-.35L245,146.83s-2.46,2.28,2.69,7.49l40.66,41c6.91,7,19.9,5.15,29-4Z"/><path class="cls-4" d="M292.59,146.53,272,125.82s-5.5-5.91-9.18-2.16,3.27,9.47,3.27,9.47l20.25,20.43"/><path class="cls-4" d="M285.92,153.09l-20.6-20.72s-5.5-5.91-9.19-2.16,3.28,9.48,3.28,9.48l20.25,20.42"/><path class="cls-4" d="M279.54,159.76,258.94,139s-5.5-5.91-9.18-2.16,3.27,9.48,3.27,9.48l20.25,20.42"/><path class="cls-4" d="M273.1,166.6l-20.59-20.71s-5.5-5.91-9.19-2.16,3.28,9.47,3.28,9.47l20.24,20.42"/><path class="cls-4" d="M326.23,191.47c9.13-9.19,10.94-22.29,4-29.26l-4.74-4.79-24.75-24.93s-4-3.8-7.37-.41.7,7.43.7,7.43l5,5-18.49-18.6s-2.86-2.87-5.44-.35l-21.3,21.47s-2.45,2.28,2.69,7.49l40.67,41c7,7,20,5.15,29-4Z"/><path class="cls-4" d="M301.42,146.77l-20.59-20.71s-5.5-5.91-9.19-2.17,3.28,9.48,3.28,9.48l20.24,20.42"/><path class="cls-4" d="M294.75,153.38l-20.59-20.71s-5.5-5.91-9.19-2.17,3.28,9.48,3.28,9.48l20.24,20.42"/><path class="cls-4" d="M288.37,160.05l-20.59-20.71s-5.5-5.91-9.19-2.17,3.28,9.48,3.28,9.48l20.24,20.42"/><path class="cls-4" d="M281.94,166.84l-20.6-20.72s-5.5-5.91-9.18-2.16,3.27,9.48,3.27,9.48l20.25,20.42"/><path class="cls-4" d="M357.77,191.24c9.13-9.19,10.94-22.3,4-29.26l-4.74-4.8-24.75-24.92s-4-3.81-7.38-.41.71,7.43.71,7.43l5,5L312.19,125.7s-2.87-2.92-5.44-.35l-21.3,21.48s-2.46,2.28,2.69,7.49l40.67,41c6.78,7,19.83,5.15,29-4Z"/><path class="cls-4" d="M332.9,146.53l-20.59-20.71s-5.5-5.91-9.19-2.16,3.28,9.47,3.28,9.47l20.24,20.43"/><path class="cls-4" d="M326.23,153.09l-20.59-20.72s-5.5-5.91-9.19-2.16,3.28,9.48,3.28,9.48L320,160.11"/><path class="cls-4" d="M319.85,159.76,299.26,139s-5.5-5.91-9.19-2.16,3.28,9.48,3.28,9.48l20.24,20.42"/><path class="cls-4" d="M313.42,166.6l-20.6-20.71s-5.5-5.91-9.18-2.16,3.27,9.47,3.27,9.47l20.25,20.42"/><path class="cls-4" d="M366.54,191.47c9.13-9.19,10.95-22.29,4-29.26l-4.74-4.79-24.75-24.93s-4-3.8-7.37-.41.7,7.43.7,7.43l5,5L321,125.94s-2.86-2.87-5.44-.35l-21.29,21.47s-2.46,2.28,2.69,7.49l40.66,41c6.91,7,19.9,5.15,29-4.1v.06Z"/><path class="cls-4" d="M341.74,146.77l-20.6-20.71s-5.5-5.91-9.19-2.17,3.28,9.48,3.28,9.48l20.25,20.42"/><path class="cls-4" d="M335.07,153.38l-20.6-20.71s-5.5-5.91-9.19-2.17,3.28,9.48,3.28,9.48l20.25,20.42"/><path class="cls-4" d="M328.69,160.05l-20.6-20.71s-5.5-5.91-9.18-2.17,3.27,9.48,3.27,9.48l20.25,20.42"/><path class="cls-4" d="M322.25,166.84l-20.59-20.72s-5.5-5.91-9.19-2.16,3.28,9.48,3.28,9.48L316,173.86"/><path class="cls-5" d="M196,265.78c11.88-11.94,14.22-28.91,5.27-37.92l-6.2-6.26L163,189.25s-5.21-4.92-9.54-.59.88,9.66.88,9.66l6.49,6.55-24-24.17s-3.74-3.74-7.08-.41l-27.67,27.86s-3.16,2.92,3.51,9.71l52.77,53.19c8.95,9,25.81,6.67,37.68-5.27Z"/><path class="cls-5" d="M163.75,207.74l-26.69-26.92S130,173.16,125.13,178s4.27,12.29,4.27,12.29l26.33,26.51"/><path class="cls-5" d="M155.14,216.28l-26.68-26.92s-7.08-7.66-11.93-2.8,4.27,12.28,4.27,12.28l26.33,26.51"/><path class="cls-5" d="M146.89,225l-26.68-26.92s-7.08-7.66-11.93-2.81,4.27,12.29,4.27,12.29l26.33,26.51"/><path class="cls-5" d="M138.53,233.83l-26.68-26.91s-7.08-7.67-11.88-2.81,4.27,12.29,4.27,12.29l26.33,26.5"/><path class="cls-5" d="M207.51,266.13c11.82-11.94,14.22-28.9,5.27-37.91l-6.2-6.21L174.39,189.6s-5.2-4.92-9.53-.53.88,9.66.88,9.66l6.49,6.55-24-24.17s-3.74-3.74-7.08-.41l-27.62,27.91s-3.16,2.93,3.51,9.66l52.78,53.18c8.95,9,25.8,6.62,37.68-5.32Z"/><path class="cls-5" d="M175.21,208.09l-26.68-26.92s-7.08-7.66-11.93-2.81,4.27,12.29,4.27,12.29l26.33,26.51"/><path class="cls-5" d="M166.55,216.63l-26.68-26.91s-7.08-7.67-11.93-2.81,4.27,12.28,4.27,12.28l26.33,26.51"/><path class="cls-5" d="M158.3,225.29l-26.68-26.92s-7.08-7.66-11.93-2.8S124,207.85,124,207.85l26.33,26.51"/><path class="cls-5" d="M150,234.18l-26.74-26.91s-7.08-7.67-11.88-2.81,4.27,12.29,4.27,12.29L142,243.25"/><path class="cls-5" d="M248.35,265.78c11.82-11.94,14.22-28.91,5.27-37.92l-6.2-6.26-32.13-32.35s-5.2-4.92-9.53-.59.87,9.66.87,9.66l6.5,6.55-24-24.17s-3.75-3.74-7.08-.41l-27.68,27.86s-3.16,2.92,3.51,9.71l52.78,53.19c9,9.06,25.81,6.67,37.68-5.27Z"/><path class="cls-5" d="M216.11,207.74l-26.68-26.92s-7.08-7.66-11.93-2.81,4.27,12.29,4.27,12.29l26.33,26.51"/><path class="cls-5" d="M207.45,216.28l-26.68-26.92s-7.08-7.66-11.93-2.8,4.27,12.28,4.27,12.28l26.33,26.51"/><path class="cls-5" d="M199.2,225l-26.68-26.92s-7.08-7.66-11.93-2.81,4.27,12.29,4.27,12.29l26.33,26.51"/><path class="cls-5" d="M190.84,233.83,164.1,206.92s-7.08-7.67-11.88-2.81,4.27,12.29,4.27,12.29l26.33,26.5"/><path class="cls-5" d="M259.82,266.13c11.82-11.94,14.22-28.9,5.27-37.91L258.88,222,226.76,189.6s-5.21-4.92-9.54-.53.88,9.66.88,9.66l6.44,6.55-24-24.17s-3.75-3.74-7.08-.41l-27.68,27.91s-3.16,2.93,3.51,9.66l52.78,53.18c9,9,25.86,6.62,37.74-5.32Z"/><path class="cls-5" d="M227.58,208.09,200.9,181.17s-7.08-7.66-11.94-2.81,4.28,12.29,4.28,12.29l26.33,26.51"/><path class="cls-5" d="M218.92,216.63l-26.68-26.91s-7.08-7.67-11.94-2.81,4.28,12.28,4.28,12.28l26.33,26.51"/><path class="cls-5" d="M210.67,225.29,184,198.37s-7.08-7.66-11.94-2.8,4.28,12.28,4.28,12.28l26.33,26.51"/><path class="cls-5" d="M202.3,234.18l-26.68-26.91s-7.08-7.67-11.93-2.81S168,216.75,168,216.75l26.33,26.5"/><path class="cls-5" d="M300.72,265.78c11.82-11.94,14.22-28.91,5.27-37.92l-6.21-6.26-32.12-32.35s-5.21-4.92-9.54-.59.88,9.66.88,9.66l6.5,6.55-24-24.17s-3.75-3.74-7.08-.41l-27.68,27.86s-3.16,2.92,3.51,9.71L263,271.05c8.95,9,25.8,6.67,37.68-5.27Z"/><path class="cls-5" d="M268.42,207.74l-26.68-26.92s-7.08-7.66-11.94-2.81,4.28,12.29,4.28,12.29l26.33,26.51"/><path class="cls-5" d="M259.82,216.28l-26.68-26.92s-7.08-7.66-11.94-2.8,4.27,12.28,4.27,12.28l26.33,26.51"/><path class="cls-5" d="M251.51,225l-26.68-26.92s-7.08-7.66-11.93-2.81,4.27,12.29,4.27,12.29l26.33,26.51"/><path class="cls-5" d="M243.2,233.83l-26.68-26.91s-7.08-7.67-11.93-2.81,4.27,12.29,4.27,12.29l26.33,26.5"/><path class="cls-5" d="M312.13,266.13c11.82-11.94,14.22-28.9,5.27-37.91L311.19,222,279.07,189.6s-5.21-4.92-9.54-.53.88,9.66.88,9.66l6.5,6.55-24-24.17s-3.75-3.74-7.08-.41l-27.68,27.91s-3.16,2.93,3.51,9.66l52.78,53.18c8.95,9,25.8,6.62,37.68-5.32Z"/><path class="cls-5" d="M279.89,208.09l-26.68-26.92s-7.08-7.66-11.88-2.81,4.27,12.29,4.27,12.29l26.33,26.51"/><path class="cls-5" d="M271.23,216.63l-26.68-26.91s-7.08-7.67-11.94-2.81,4.27,12.28,4.27,12.28l26.33,26.51"/><path class="cls-5" d="M263,225.29,236.3,198.37s-7.08-7.66-11.94-2.8,4.27,12.28,4.27,12.28L255,234.36"/><path class="cls-5" d="M254.67,234.18,228,207.27s-7.08-7.67-11.94-2.81,4.28,12.29,4.28,12.29l26.33,26.5"/><path class="cls-5" d="M353,265.78c11.82-11.94,14.22-28.91,5.27-37.92l-6.21-6.26L320,189.25s-5.21-4.92-9.54-.59.88,9.66.88,9.66l6.5,6.55-24-24.17s-3.75-3.74-7.08-.41l-27.68,27.86s-3.16,2.92,3.51,9.71l52.78,53.19c8.89,9.06,25.8,6.67,37.68-5.27Z"/><path class="cls-5" d="M320.79,207.74l-26.68-26.92S287,173.16,282.23,178s4.27,12.29,4.27,12.29l26.33,26.51"/><path class="cls-5" d="M312.13,216.28l-26.68-26.92s-7.08-7.66-11.94-2.8,4.27,12.28,4.27,12.28l26.33,26.51"/><path class="cls-5" d="M303.88,225,277.2,198.08s-7.08-7.66-11.94-2.81,4.27,12.29,4.27,12.29l26.33,26.51"/><path class="cls-5" d="M295.51,233.83l-26.68-26.91s-7.08-7.67-11.93-2.81,4.27,12.29,4.27,12.29l26.33,26.5"/><path class="cls-5" d="M364.5,266.13c11.82-11.94,14.22-28.9,5.26-37.91l-6.2-6.21L331.44,189.6s-5.21-4.92-9.54-.53.88,9.66.88,9.66l6.49,6.55-24-24.17s-3.74-3.74-7.08-.41l-27.67,27.91s-3.16,2.93,3.51,9.66l52.78,53.18c8.95,9,25.8,6.62,37.68-5.32Z"/><path class="cls-5" d="M332.2,208.09l-26.68-26.92s-7.08-7.66-11.88-2.81,4.27,12.29,4.27,12.29l26.33,26.51"/><path class="cls-5" d="M323.6,216.63l-26.68-26.91s-7.08-7.67-11.94-2.81,4.27,12.28,4.27,12.28l26.33,26.51"/><path class="cls-5" d="M315.35,225.29l-26.68-26.92s-7.08-7.66-11.94-2.8S281,207.85,281,207.85l26.33,26.51"/><path class="cls-5" d="M307,234.18,280.3,207.27s-7.08-7.67-11.94-2.81,4.27,12.29,4.27,12.29L299,243.25"/><path class="cls-6" d="M148.71,361.27c15.09-15.21,18.14-36.92,6.67-48.39l-7.9-8-41-41.31s-6.61-6.31-12.17-.7,1.11,12.35,1.11,12.35l8.25,8.37-30.6-30.78s-4.74-4.8-9-.53L28.7,287.9s-4,3.74,4.45,12.34l67.35,67.88c11.58,11.46,33.11,8.42,48.21-6.85Z"/><path class="cls-6" d="M107.58,287.25,73.52,252.91s-9.07-9.77-15.21-3.57S63.81,265,63.81,265l33.58,33.82"/><path class="cls-6" d="M96.52,298.14,62.46,263.79s-9.07-9.77-15.21-3.57,5.5,15.68,5.5,15.68l33.59,33.82"/><path class="cls-6" d="M86,309.19,51.93,274.85s-9.07-9.77-15.21-3.57S42.22,287,42.22,287L75.8,320.78"/><path class="cls-6" d="M75.34,320.49,41.28,286.14s-9.07-9.77-15.21-3.57,5.5,15.68,5.5,15.68l33.58,33.82"/><path class="cls-6" d="M163.34,361.74c15.09-15.22,18.13-36.92,6.67-48.39l-7.9-8-41-41.31s-6.61-6.32-12.17-.7S110,275.73,110,275.73l8.25,8.3L87.74,253.2s-4.74-4.8-9-.53L43.39,288.25s-4,3.74,4.45,12.34l67.34,67.88c11.47,11.52,33,8.48,48.16-6.73Z"/><path class="cls-6" d="M122.14,287.66l-34-34.34s-9.07-9.77-15.21-3.57,5.5,15.68,5.5,15.68L112,299.25"/><path class="cls-6" d="M111.14,298.55l-34-34.35s-9.07-9.77-15.21-3.57,5.5,15.68,5.5,15.68L101,310.13"/><path class="cls-6" d="M100.61,309.66l-34-34.34s-9.07-9.77-15.21-3.57,5.5,15.68,5.5,15.68l33.58,33.82"/><path class="cls-6" d="M90,321l-34-34.35S46.84,276.84,40.7,283s5.5,15.68,5.5,15.68l33.58,33.82"/><path class="cls-6" d="M214.65,361.27c15.1-15.21,18.14-36.92,6.67-48.39l-7.9-8-41-41.31s-6.67-6.31-12.18-.7,1.12,12.35,1.12,12.35l8.25,8.37L139,252.85s-4.74-4.8-9-.53L94.64,287.9s-4.09,3.74,4.45,12.34l67.35,67.88c11.52,11.46,33.06,8.42,48.21-6.85Z"/><path class="cls-6" d="M173.46,287.25l-34.05-34.34s-9.07-9.77-15.22-3.57,5.5,15.68,5.5,15.68l33.59,33.82"/><path class="cls-6" d="M162.46,298.14l-34.05-34.35s-9.07-9.77-15.22-3.57,5.5,15.68,5.5,15.68l33.59,33.82"/><path class="cls-6" d="M151.93,309.19l-34.06-34.34s-9.07-9.77-15.21-3.57,5.5,15.68,5.5,15.68l33.59,33.82"/><path class="cls-6" d="M141.28,320.49l-34.06-34.35s-9.07-9.77-15.21-3.57,5.5,15.68,5.5,15.68l33.59,33.82"/><path class="cls-6" d="M229.22,361.74c15.1-15.22,18.14-36.92,6.67-48.39l-7.9-8-41-41.31s-6.67-6.32-12.17-.7,1.12,12.35,1.12,12.35l8.25,8.3L153.56,253.2s-4.73-4.8-9-.53l-35.34,35.58s-4,3.74,4.45,12.34L181,368.47c11.58,11.52,33.11,8.48,48.21-6.73Z"/><path class="cls-6" d="M188.09,287.66,154,253.32s-9.07-9.77-15.21-3.57,5.5,15.68,5.5,15.68l33.59,33.82"/><path class="cls-6" d="M177,298.55,143,264.2s-9.06-9.77-15.21-3.57,5.5,15.68,5.5,15.68l33.59,33.82"/><path class="cls-6" d="M166.5,309.66l-34.06-34.34s-9.07-9.77-15.21-3.57,5.5,15.68,5.5,15.68l33.58,33.82"/><path class="cls-6" d="M155.91,321l-34.06-34.35s-9.07-9.77-15.21-3.57,5.5,15.68,5.5,15.68l33.58,33.82"/><path class="cls-6" d="M280.53,361.27c15.1-15.21,18.14-36.92,6.67-48.39l-7.9-8-41-41.31s-6.61-6.31-12.17-.7,1.11,12.35,1.11,12.35l8.25,8.37-30.6-30.78s-4.74-4.8-9-.53L160.53,287.9s-4,3.74,4.44,12.34l67.35,67.88c11.59,11.46,33.12,8.42,48.21-6.85Z"/><path class="cls-6" d="M239.4,287.25l-34.05-34.34s-9.07-9.77-15.22-3.57,5.5,15.68,5.5,15.68l33.59,33.82"/><path class="cls-6" d="M228.34,298.14l-34.05-34.35s-9.07-9.77-15.21-3.57,5.5,15.68,5.5,15.68l33.58,33.82"/><path class="cls-6" d="M217.81,309.19l-34.05-34.34s-9.07-9.77-15.22-3.57S174,287,174,287l33.59,33.82"/><path class="cls-6" d="M207.22,320.49l-34.05-34.35s-9.07-9.77-15.22-3.57,5.5,15.68,5.5,15.68L197,332.07"/><path class="cls-6" d="M295.16,361.74c15.1-15.22,18.14-36.92,6.67-48.39l-7.9-8-41-41.31s-6.62-6.32-12.17-.7,1.11,12.35,1.11,12.35l8.25,8.3-30.6-30.83s-4.74-4.8-9-.53l-35.34,35.58s-4,3.74,4.44,12.34L247,368.47c11.58,11.52,33.12,8.48,48.21-6.73Z"/><path class="cls-6" d="M254,287.66,220,253.32s-9.06-9.77-15.21-3.57,5.5,15.68,5.5,15.68l33.59,33.82"/><path class="cls-6" d="M243,298.55,208.92,264.2s-9.07-9.77-15.22-3.57,5.5,15.68,5.5,15.68l33.59,33.82"/><path class="cls-6" d="M232.44,309.66l-34.06-34.34s-9.06-9.77-15.21-3.57,5.5,15.68,5.5,15.68l33.59,33.82"/><path class="cls-6" d="M221.79,321l-34-34.35s-9.07-9.77-15.22-3.57,5.5,15.68,5.5,15.68l33.59,33.82"/><path class="cls-6" d="M346.48,361.27c15.09-15.21,18.13-36.92,6.67-48.39l-7.9-8-41-41.31s-6.61-6.31-12.17-.7,1.11,12.35,1.11,12.35l8.25,8.37-30.6-30.78s-4.74-4.8-9-.53L226.47,287.9s-4,3.74,4.45,12.34l67.34,67.88c11.59,11.46,33.12,8.42,48.22-6.85Z"/><path class="cls-6" d="M305.34,287.25l-34-34.34s-9.07-9.77-15.21-3.57,5.5,15.68,5.5,15.68l33.58,33.82"/><path class="cls-6" d="M294.28,298.14l-34-34.35S251.16,254,245,260.22s5.5,15.68,5.5,15.68l33.58,33.82"/><path class="cls-6" d="M283.75,309.19,249.7,274.85s-9.07-9.77-15.21-3.57S240,287,240,287l33.58,33.82"/><path class="cls-6" d="M273.1,320.49l-34.05-34.35s-9.07-9.77-15.21-3.57,5.5,15.68,5.5,15.68l33.58,33.82"/><path class="cls-6" d="M361.1,361.74c15.1-15.22,18.14-36.92,6.67-48.39l-7.9-8-41-41.31s-6.61-6.32-12.17-.7,1.11,12.35,1.11,12.35l8.25,8.3L285.51,253.2s-4.74-4.8-9-.53l-35.34,35.58s-4,3.74,4.44,12.34L313,368.47c11.47,11.52,33,8.48,48.15-6.73Z"/><path class="cls-6" d="M319.91,287.66l-34.05-34.34s-9.07-9.77-15.21-3.57,5.5,15.68,5.5,15.68l33.58,33.82"/><path class="cls-6" d="M308.91,298.55,274.86,264.2s-9.07-9.77-15.21-3.57,5.5,15.68,5.5,15.68l33.58,33.82"/><path class="cls-6" d="M298.38,309.66l-34.05-34.34s-9.07-9.77-15.22-3.57,5.5,15.68,5.5,15.68l33.59,33.82"/><path class="cls-6" d="M287.73,321l-34.05-34.35s-9.07-9.77-15.22-3.57,5.5,15.68,5.5,15.68l33.59,33.82"/></svg>