<svg id="Layer_1" data-name="Layer 1" xmlns="http://www.w3.org/2000/svg" viewBox="0 0 604.63 604.63"><defs><style>.cls-1,.cls-2{fill:#fff;}.cls-2{stroke:#181616;stroke-miterlimit:10;stroke-width:5px;}</style></defs><rect class="cls-1" width="604.63" height="604.63"/><polyline class="cls-2" points="423.29 261.38 550.38 261.38 550.38 133.58"/><path class="cls-2" d="M1169,811.18l11.28-11.28h157.88s10.41.44,11.06,11.28" transform="translate(-943.66 -238.2)"/><path class="cls-2" d="M1169,811.18l11.28,11.28h157.88s10.41-.44,11.06-11.28" transform="translate(-943.66 -238.2)"/><path class="cls-2" d="M1329.18,799.87s6.19,2.59,6.4,11.78" transform="translate(-943.66 -238.2)"/><path class="cls-2" d="M1329.18,822.46s6.19-2.6,6.4-11.78" transform="translate(-943.66 -238.2)"/><path class="cls-2" d="M1242.16,338.74V288.58s-.66-31,32.43-31.44,146.26,0,146.26,0S1446,254.39,1446,287V427.28s2.16,16.31-13.17,16.31h-21.21v18.77s1,13.84-6.68,13.84-6.49-13.84-6.49-13.84V429.64h-8s-5.7-.59-5.7-9.83V331.6s1-14.54-11.2-14.54h-56.58s-8.64-.59-8.64,8.65-.2,23.38-.2,23.38Z" transform="translate(-943.66 -238.2)"/><ellipse class="cls-2" cx="328.64" cy="162.18" rx="54.84" ry="77.65"/><ellipse class="cls-2" cx="346.69" cy="159.98" rx="18.05" ry="6.51"/><ellipse class="cls-2" cx="523.78" cy="460.59" rx="53.13" ry="44.89"/><path class="cls-2" d="M1467.44,595.29h-7.69l-14.57-19.16s7.2-5.07,22.26-5.07" transform="translate(-943.66 -238.2)"/><path class="cls-2" d="M1467.44,595.29h7.69l14.57-19.16s-7.21-5.07-22.26-5.07" transform="translate(-943.66 -238.2)"/><path class="cls-2" d="M1459.06,707.61c1,4.31,5,6.53,9.41,6.53,5.67,0,9.35-1.73,9.35-6.43,0-3.36-1.87-5.79-9.29-7.47-7.6-1.68-11.57-3.76-11.57-8.86,0-4.75,4.44-8.26,11.27-8.26,9.06,0,11.63,4.7,12,7.62h-3c-1-3.07-3.33-5.4-9-5.4-5.9,0-8.07,2.73-8.07,5.79,0,3.32,2.17,5.2,8.77,6.64,9.7,2.17,12.15,5.29,12.15,9.74,0,5.6-4.5,8.91-12.74,8.86-7.24,0-11.57-3.71-12.21-8.76Zm8.3,13.36V679.6h2.74V721Z" transform="translate(-943.66 -238.2)"/><path class="cls-2" d="M1158.76,652.7V497.42s.43-35.56-28.2-35.56H1092V415h-17.35s-14.75-.87-14.75-10.19,14.53-9.54,14.53-9.54h103.74s41.06-3.55,41.06,37.23V601.37Z" transform="translate(-943.66 -238.2)"/><path class="cls-2" d="M1247.75,469.83V495h-9.48s-30.36-3-30.36,27.1V774.48h67.95" transform="translate(-943.66 -238.2)"/><path class="cls-2" d="M1296.57,469.38v25.21H1306s30.36-3,30.36,27.11V774h-68" transform="translate(-943.66 -238.2)"/><path class="cls-2" d="M1091.38,573.65v-9.51H979.77s-9.83.76-9.83,9.51" transform="translate(-943.66 -238.2)"/><path class="cls-2" d="M1091.38,573.65v9.51H979.77s-9.83-.76-9.83-9.51" transform="translate(-943.66 -238.2)"/><path class="cls-2" d="M1103.82,563.78c-5.85,0-17.93-16.19-17.93-16.19h35.85S1109.66,563.78,1103.82,563.78Z" transform="translate(-943.66 -238.2)"/><path class="cls-2" d="M1103.38,575.78s21,16.57,0,37.56Z" transform="translate(-943.66 -238.2)"/><circle class="cls-2" cx="159.73" cy="335.44" r="15.18"/><path class="cls-2" d="M1227.22,692.71v50.16s.66,31-32.43,31.44-146.26,0-146.26,0-25.15,2.75-25.15-29.87V604.17s-2.16-16.3,13.16-16.3h21.22V569.09s-1-13.84,6.68-13.84,6.49,13.84,6.49,13.84v32.72h8s5.7.59,5.7,9.83v88.21s-1,14.54,11.2,14.54h56.58s8.64.59,8.64-8.65.2-23.38.2-23.38Z" transform="translate(-943.66 -238.2)"/><path class="cls-2" d="M1289,537.66l44.27,46.22S1345,595.29,1358,595.29h74.35V575.68s-.25-9.2,6.13-9.2,6.13,9.73,6.13,9.73v19.08h30.91s9.39-.4,9.39,9.8v49s1.53,9.3-8.91,9.3H1354.44s-37,2.17-66.94-35.45l-29.89-37.62" transform="translate(-943.66 -238.2)"/><path class="cls-2" d="M1233.21,564.14l-80.59,82.92s-19.22,14.31,0,34.09,61.36,60.2,61.36,60.2,14.26,15.57,14.26,26.94V807s-1.37,14.94,9.68,14.94H1288s11.14,1.48,11.14-13.89V792.7H1315s9.2.84,9-6.31-9.62-6.53-9.62-6.53h-16.36V760.71s1-17.26-15.14-33.89-47.65-47.77-47.65-47.77-10.64-9.68-.21-21.89,37.64-42.51,37.64-42.51" transform="translate(-943.66 -238.2)"/><rect class="cls-2" x="114.76" y="138.2" width="40.48" height="93.42"/><rect class="cls-2" x="98.01" y="156.99" width="16.19" height="66.87"/><rect class="cls-2" x="130.69" y="118.54" width="10.96" height="19.66"/><polyline class="cls-2" points="99.01 172.89 76.61 161.76 76.61 191.43"/><polyline class="cls-2" points="99.01 203.44 76.61 214.57 76.61 184.9"/><path class="cls-2" d="M1061.8,416.2h-19.69s-7.92.95-7.92,7.69,7.24,8.4,7.24,8.4h20.37" transform="translate(-943.66 -238.2)"/><path class="cls-2" d="M1060.55,416.2h19.68s7.92.95,7.92,7.69-7.24,8.4-7.24,8.4h-20.36" transform="translate(-943.66 -238.2)"/><path class="cls-2" d="M1062,432.29h-19.31s-7.77.93-7.77,7.54,7.11,8.24,7.11,8.24h20" transform="translate(-943.66 -238.2)"/><path class="cls-2" d="M1060.76,432.29h19.31s7.76.93,7.76,7.54-7.1,8.24-7.1,8.24h-20" transform="translate(-943.66 -238.2)"/><path class="cls-2" d="M1065.08,448.37h-16.76s-6.75.81-6.75,6.55,6.17,7.15,6.17,7.15h17.34" transform="translate(-943.66 -238.2)"/><path class="cls-2" d="M1064,448.37h16.77s6.74.81,6.74,6.55-6.17,7.15-6.17,7.15H1064" transform="translate(-943.66 -238.2)"/><path class="cls-2" d="M1093.68,395.2H1074s-7.92.95-7.92,7.69,7.24,8.39,7.24,8.39h20.36" transform="translate(-943.66 -238.2)"/><path class="cls-2" d="M1092.44,395.2h19.68s7.92.95,7.92,7.69-7.24,8.39-7.24,8.39h-20.36" transform="translate(-943.66 -238.2)"/></svg>