<svg id="Layer_1" data-name="Layer 1" xmlns="http://www.w3.org/2000/svg" viewBox="0 0 400 400"><defs><style>.cls-1{fill:#a0d9cb;}.cls-1,.cls-2,.cls-3,.cls-4,.cls-5,.cls-6,.cls-7,.cls-8,.cls-9{stroke:#fff;stroke-miterlimit:10;}.cls-1,.cls-2,.cls-3,.cls-4,.cls-5,.cls-6,.cls-9{stroke-width:2.97px;}.cls-2{fill:#e5e5e5;}.cls-3{fill:#ffbe67;}.cls-4,.cls-8{fill:#fff;}.cls-5,.cls-7{fill:#f66;}.cls-6{fill:none;}.cls-7{stroke-width:2.37px;}.cls-8{stroke-width:0.59px;}.cls-9{fill:#272635;}</style></defs><rect class="cls-1" x="28.67" y="110.25" width="342.66" height="220.03"/><rect class="cls-1" x="108.38" y="80.81" width="101.26" height="54.79"/><rect class="cls-2" x="122.63" y="93.04" width="72.77" height="30.33"/><rect class="cls-3" x="129.93" y="69.71" width="58.11" height="10.62"/><rect class="cls-1" x="229.05" y="99.63" width="58.11" height="10.62"/><rect class="cls-3" x="325.8" y="99.63" width="39.95" height="10.62"/><rect class="cls-3" x="238.14" y="88.89" width="41.13" height="10.62"/><circle class="cls-3" cx="302.89" cy="186.88" r="15.55"/><circle class="cls-3" cx="318.44" cy="258.11" r="30.98"/><rect class="cls-4" x="49.03" y="146.52" width="220.03" height="165.72"/><ellipse class="cls-5" cx="156.76" cy="230.21" rx="66.06" ry="75.92"/><path class="cls-5" d="M111.17,215.85s3.57,14.24,15.5,16.68,19.11-16,19.11-16"/><line class="cls-6" x1="146.55" y1="266.48" x2="170.47" y2="266.48"/><ellipse class="cls-5" cx="128.51" cy="215.49" rx="17.33" ry="6.89"/><path class="cls-7" d="M133.79,183.62C144.12,190.5,147,208.55,147,208.55V179.28Z"/><circle class="cls-8" cx="128.51" cy="212.94" r="4.69"/><ellipse class="cls-5" cx="183.65" cy="215.49" rx="17.33" ry="6.89"/><path class="cls-7" d="M178.36,183.62c-10.32,6.88-13.23,24.93-13.23,24.93V179.28Z"/><circle class="cls-8" cx="183.59" cy="212.94" r="4.69"/><path class="cls-9" d="M124.35,306.31a21,21,0,0,0,21-21V256S145.84,249,136,249H107.43s-9.25-.12-9.25,6.82v29.44a21,21,0,0,0,20.95,21h5.22Z"/><path class="cls-9" d="M134.56,262.62V233.54s.3-8-4.93-8c-4.57,0-4.45,6.89-4.33,8.61v29"/><path class="cls-9" d="M125.12,279.6v-28s.24-7.72-4.75-7.72c-4.33,0-4.27,6.41-4.15,8.19,0,.48.06.89.06,1.31v26.65"/><path class="cls-9" d="M116.16,280.13v-28s.24-7.71-4.75-7.71c-4.33,0-4.27,6.41-4.15,8.19,0,.41.06.89.06,1.3v26.66"/><path class="cls-9" d="M107.2,280.84V252.89s.23-7.72-4.75-7.72c-4.33,0-4.27,6.41-4.16,8.19v28"/></svg>