<svg id="Layer_1" data-name="Layer 1" xmlns="http://www.w3.org/2000/svg" viewBox="0 0 400 400"><defs><style>.cls-1{fill:#ffbc47;}.cls-1,.cls-2,.cls-3,.cls-4,.cls-5,.cls-6,.cls-7{stroke:#fff;}.cls-1,.cls-2,.cls-5,.cls-6,.cls-7{stroke-miterlimit:10;stroke-width:3.1px;}.cls-2,.cls-3,.cls-4{fill:#7d666e;}.cls-3{stroke-miterlimit:10;stroke-width:3.1px;}.cls-4{stroke-miterlimit:10;stroke-width:3.1px;}.cls-5{fill:#f38c8d;}.cls-6{fill:#548ea6;}.cls-7{fill:#2c5f72;}</style></defs><path class="cls-1" d="M201.09,234.52s-21.18-1.12-36.32,10.86l18.44,29.31s-42.29,15.71-42.29,62.4,60.23,45.57,60.23,45.57"/><path class="cls-1" d="M199.22,234.39s21.18-1.11,36.32,10.87l-18.44,29.3s42.29,15.71,42.29,62.4-60.23,45.57-60.23,45.57"/><path class="cls-2" d="M168.68,359.37s-14.1-8.75-14.9-9-5,8.26-5,8.26,2,6.33,12.85,12.91"/><path class="cls-2" d="M168.62,359.37s14.28,8.39,14.9,9-5.1,7.94-5.1,7.94-6.45,1.49-17.26-5"/><ellipse class="cls-3" cx="168.23" cy="360.13" rx="8.13" ry="17.63" transform="translate(-226.99 317.75) rotate(-58.84)"/><path class="cls-2" d="M216.36,365.4s-16.14,3.66-16.89,4.09,2.24,9.38,2.24,9.38,5.9,3.1,18.19.12"/><path class="cls-2" d="M216.3,365.46s16.08-4.1,16.89-4.1,2,9.25,2,9.25-3.54,5.59-15.83,8.57"/><ellipse class="cls-4" cx="216.55" cy="366.07" rx="17.63" ry="8.13" transform="translate(-79.96 61.14) rotate(-13.59)"/><path class="cls-1" d="M188.36,324.54c1.12,4.78,5.59,7.27,10.43,7.27,6.27,0,10.37-1.93,10.37-7.14,0-3.73-2-6.4-10.31-8.32-8.44-1.86-12.85-4.16-12.85-9.81,0-5.28,4.9-9.19,12.54-9.19,10.06,0,12.91,5.22,13.29,8.44h-3.36c-1.11-3.41-3.72-6-10-6-6.58,0-8.94,3.05-8.94,6.4,0,3.66,2.42,5.77,9.75,7.32,10.74,2.43,13.47,5.9,13.47,10.81,0,6.21-5,9.87-14.16,9.81-8-.06-12.85-4.1-13.53-9.75h3.29Zm9.25,14.84V293.44h3v45.94Z"/><path class="cls-5" d="M51.09,205.46s-3.67,8.76,3,14S125,270.34,125,270.34s15.89,10.18,27.75-3.35,3.67-25.46-2.29-30-89-66.93-89-66.93-9.44-3.66-14,3.05S36,190.87,36,190.87,35.63,196.58,51.09,205.46Z"/><path class="cls-5" d="M97.34,200,48.79,165.35s-8.57-4.9-12.29.5.55,9.94,2.42,11.86,51.84,40.17,51.84,40.17"/><path class="cls-5" d="M95,206.64l-54.7-39s-9.62-5.52-13.84.56.62,11.24,2.73,13.35,58.36,45.26,58.36,45.26"/><path class="cls-5" d="M92.81,214.59l-54.7-39s-9.62-5.53-13.85.56.63,11.24,2.74,13.35,58.36,45.26,58.36,45.26"/><path class="cls-5" d="M102.93,235.08,60.21,206.64s-7.51-4-10.55.75.74,8.57,2.42,10.12,45.69,33.15,45.69,33.15"/><path class="cls-5" d="M348.91,205.77s3.67,8.76-3,14S275,270.65,275,270.65s-15.89,10.19-27.75-3.35-3.67-25.45,2.29-30,89-66.93,89-66.93,9.44-3.66,14,3.05S364,191.18,364,191.18,364.37,196.83,348.91,205.77Z"/><path class="cls-5" d="M302.66,200.25l48.55-34.65s8.57-4.9,12.29.5S363,176,361.08,178s-51.84,40.17-51.84,40.17"/><path class="cls-5" d="M305,206.89l54.7-39s9.62-5.53,13.84.56-.62,11.24-2.73,13.35-58.36,45.26-58.36,45.26"/><path class="cls-5" d="M307.19,214.84l54.7-39s9.62-5.53,13.85.56-.63,11.23-2.74,13.34S314.64,235,314.64,235"/><path class="cls-5" d="M297.07,235.33l42.72-28.44s7.51-4,10.55.75-.74,8.56-2.42,10.12-45.69,33.15-45.69,33.15"/><path class="cls-6" d="M289.31,160.2s-42.65-35.76-.43-113.43c0,0-62.21-9.38-62.28,107.22Z"/><path class="cls-7" d="M265.28,110.16s10,30.24-19.62,47.5l15.53,1.11s13.66-11.3,13-25.82S265.28,110.16,265.28,110.16Z"/><path class="cls-6" d="M329.23,155.42s-31.1-16.64-9.31-60.53c0,0-42-1.37-32.78,60.84Z"/><path class="cls-6" d="M255.23,155.61s29.61-13.85,9-50c0,0,39.92-1.31,31,50.16Z"/><path class="cls-7" d="M156.76,22.06s34.39,80.9-45.33,134.11H155.2s36-33.72,31.3-73.39S156.76,22.06,156.76,22.06Z"/><path class="cls-7" d="M116.59,54.28s23.78,60.47-31.36,100.21h30.3s24.9-25.21,21.67-54.82S116.59,54.28,116.59,54.28Z"/><path class="cls-7" d="M93.93,98.55s11.42,38-25.65,58.55L87.34,159s17.14-13.66,16.89-31.79S93.93,98.55,93.93,98.55Z"/><path class="cls-6" d="M79.21,154.86s36.94-16.33,12.67-62c0,0,49.29-.37,36.63,63.45Z"/><path class="cls-6" d="M95.54,151.45s58.42-26.89,20-102.26c0,0,77.92-.56,57.87,104.55Z"/><path class="cls-6" d="M126.27,154.18s84.44-35.95,28.93-136.84c0,0,112.57-.74,83.64,139.94Z"/><rect class="cls-7" x="62.94" y="150.27" width="275.97" height="14.09"/></svg>