<svg id="Layer_1" data-name="Layer 1" xmlns="http://www.w3.org/2000/svg" viewBox="0 0 400 400"><defs><style>.cls-1,.cls-4{fill:#494949;}.cls-1,.cls-10,.cls-2,.cls-3,.cls-4,.cls-5,.cls-6,.cls-7,.cls-8,.cls-9{stroke:#fff;stroke-miterlimit:10;}.cls-1,.cls-10,.cls-2,.cls-3,.cls-5,.cls-6,.cls-7,.cls-8,.cls-9{stroke-width:3.14px;}.cls-2{fill:#40cee2;}.cls-3{fill:#0d3b66;}.cls-4{stroke-width:3.68px;}.cls-5{fill:#c62127;}.cls-6{fill:#f95738;}.cls-7{fill:#faf0ca;}.cls-8{fill:#ee964b;}.cls-9{fill:#f4d35e;}.cls-10{fill:#748b74;}</style></defs><polygon class="cls-1" points="279.3 174.96 358.9 174.77 358.9 94.48 353.44 94.54 353.44 169.3 279.3 169.3 279.3 174.96"/><path class="cls-1" d="M154.72,370.53l7.1-7.1H261s6.53.25,7,7.1"/><path class="cls-1" d="M154.72,370.53l7.1,7.1H261s6.53-.25,7-7.1"/><path class="cls-2" d="M255.37,363.43s3.89,1.63,4,7.41"/><path class="cls-2" d="M255.37,377.63s3.89-1.63,4-7.41"/><path class="cls-3" d="M200.71,73.75V42.21s-.44-19.48,20.35-19.73,91.92,0,91.92,0,15.77-1.76,15.77,18.79v88.14s1.38,10.24-8.3,10.24H307.13v11.81s.63,8.67-4.21,8.67-4.08-8.67-4.08-8.67V130.92h-5.09s-3.58-.38-3.58-6.16V69.35s.63-9.11-7-9.11H247.58a5,5,0,0,0-5.41,5.4c0,5.78-.12,14.7-.12,14.7Z"/><ellipse class="cls-1" cx="336.94" cy="299.33" rx="33.36" ry="28.21"/><path class="cls-4" d="M340.69,234.89h-6.62L321.5,222.83s6.2-3.2,19.19-3.2"/><path class="cls-4" d="M340.69,234.89h6.63l12.56-12.06s-6.2-3.2-19.19-3.2"/><path class="cls-5" d="M332.31,306c.63,2.7,3.14,4.08,5.9,4.08,3.59,0,5.85-1.07,5.85-4,0-2.14-1.2-3.64-5.85-4.71s-7.28-2.39-7.28-5.59c0-3,2.76-5.22,7.1-5.22,5.71,0,7.28,3,7.53,4.78h-1.88c-.63-2-2.07-3.4-5.65-3.4s-5.09,1.7-5.09,3.65,1.38,3.27,5.53,4.15c6.09,1.38,7.66,3.32,7.66,6.15,0,3.52-2.83,5.59-8,5.53-4.52,0-7.29-2.32-7.66-5.53h1.82Zm5.21,8.42v-26h1.7v26Z"/><path class="cls-6" d="M148.31,271V173.39s.25-22.31-17.71-22.31H106.35V121.62H95.48s-9.3-.57-9.3-6.41,9.11-6,9.11-6h65.15s25.82-2.2,25.82,23.37V238.72Z"/><path class="cls-7" d="M221.88,347.47H179.22V189c0-18.91,19.1-17,19.1-17h6V156.11l30.66-.25v15.83h6s19.1-1.88,19.1,17v158.5H217.29"/><path class="cls-1" d="M106,221.32v-6H35.86s-6.16.51-6.16,6"/><path class="cls-1" d="M106,221.32v6H35.86s-6.16-.5-6.16-6"/><path class="cls-1" d="M113.76,215.1c-3.71,0-11.25-10.18-11.25-10.18h22.56S117.47,215.1,113.76,215.1Z"/><path class="cls-1" d="M113.51,222.64s13.19,10.43,0,23.56Z"/><circle class="cls-1" cx="113.51" cy="221.32" r="9.55"/><ellipse class="cls-7" cx="219.62" cy="112.45" rx="34.43" ry="48.75"/><ellipse class="cls-1" cx="230.93" cy="111.06" rx="11.31" ry="4.08"/><path class="cls-8" d="M191.29,296.08v31.54s.44,19.48-20.36,19.73-91.91,0-91.91,0-15.77,1.76-15.77-18.79V240.48s-1.38-10.24,8.29-10.24H84.86V218.43s-.63-8.67,4.21-8.67,4.08,8.67,4.08,8.67V239h5s3.58.37,3.58,6.15v55.48s-.63,9.11,7,9.11h35.56a5,5,0,0,0,5.4-5.47c0-5.84.12-14.7.12-14.7Z"/><path class="cls-9" d="M229.48,198.71l27.83,29s7.35,7.16,15.52,7.16h46.74V222.58s-.19-5.78,3.84-5.78,3.83,6.09,3.83,6.09v12h19.41a5.67,5.67,0,0,1,5.91,6.16v30.78s.94,5.85-5.6,5.85H270.57s-23.25,1.38-42-22.31l-18.78-23.62"/><path class="cls-10" d="M195.05,215.29l-50.63,52.08s-12.06,9,0,21.43S183,326.62,183,326.62s9,9.73,9,16.9v24.31s-.88,9.42,6.09,9.42h31.48s7,.95,7-8.73v-9.67h10s5.78.5,5.65-4-6-4.09-6-4.09h-10.3v-12s.63-10.86-9.49-21.29-30-30-30-30-6.66-6.1-.12-13.76S219.87,247,219.87,247"/><rect class="cls-1" x="85.24" y="97.37" width="25.44" height="58.68"/><rect class="cls-1" x="74.75" y="109.18" width="10.18" height="42.03"/><rect class="cls-1" x="95.29" y="85.06" width="6.91" height="12.38"/><path class="cls-6" d="M87.37,122.37H75s-5,.57-5,4.84,4.53,5.28,4.53,5.28H87.37"/><path class="cls-6" d="M86.56,122.37H98.93s5,.57,5,4.84-4.53,5.28-4.53,5.28H86.56"/><path class="cls-6" d="M87.5,132.49H75.37s-4.9.56-4.9,4.71,4.46,5.15,4.46,5.15H87.5"/><path class="cls-6" d="M86.75,132.49H98.87s4.9.56,4.9,4.71-4.46,5.15-4.46,5.15H86.75"/><path class="cls-6" d="M89.45,142.6H78.89s-4.21.51-4.21,4.09,3.9,4.46,3.9,4.46H89.45"/><path class="cls-6" d="M88.76,142.6H99.31s4.21.51,4.21,4.09-3.9,4.46-3.9,4.46H88.76"/><path class="cls-6" d="M107.41,109.18H95s-5,.57-5,4.84,4.53,5.27,4.53,5.27h12.81"/><path class="cls-6" d="M106.6,109.18H119s5,.57,5,4.84-4.53,5.27-4.53,5.27H106.66"/></svg>