<svg id="Layer_1" data-name="Layer 1" xmlns="http://www.w3.org/2000/svg" viewBox="0 0 604.95 604.63"><defs><style>.cls-1,.cls-2,.cls-3,.cls-4,.cls-5{fill:#fff;}.cls-2,.cls-3,.cls-4,.cls-5{stroke:#000;stroke-miterlimit:10;}.cls-2{stroke-width:2px;}.cls-3{stroke-width:3px;}.cls-4{stroke-width:4px;}.cls-5{stroke-width:5px;}</style></defs><rect class="cls-1" width="604.63" height="604.63"/><path class="cls-2" d="M1278.28,365.26c7.2-7.25,8.63-17.56,3.19-23l-3.75-3.78-19.52-19.66s-3.16-3-5.8-.34.54,5.87.54,5.87l3.94,4-14.56-14.66s-2.26-2.28-4.28-.25l-16.81,16.93s-1.93,1.79,2.13,5.88l32.05,32.29c5.44,5.48,15.68,4,22.87-3.21Z" transform="translate(-783.68 -309.03)"/><path class="cls-2" d="M1258.7,330l-16.22-16.34s-4.32-4.64-7.23-1.71,2.6,7.47,2.6,7.47l16,16.09" transform="translate(-783.68 -309.03)"/><path class="cls-2" d="M1253.45,335.21l-16.22-16.34s-4.31-4.65-7.23-1.71,2.61,7.47,2.61,7.47l16,16.09" transform="translate(-783.68 -309.03)"/><path class="cls-2" d="M1248.44,340.48l-16.22-16.34s-4.32-4.65-7.23-1.71,2.6,7.47,2.6,7.47l16,16.09" transform="translate(-783.68 -309.03)"/><path class="cls-2" d="M1243.37,345.86l-16.22-16.34s-4.31-4.65-7.23-1.71,2.61,7.47,2.61,7.47l16,16.09" transform="translate(-783.68 -309.03)"/><path class="cls-2" d="M1285.24,365.47c7.19-7.25,8.62-17.57,3.18-23l-3.75-3.78L1265.15,319s-3.16-3-5.8-.34.54,5.87.54,5.87l3.94,4-14.55-14.66s-2.27-2.29-4.29-.25l-16.81,16.93s-1.93,1.78,2.13,5.88l32.06,32.29c5.43,5.47,15.67,4,22.87-3.21Z" transform="translate(-783.68 -309.03)"/><path class="cls-2" d="M1265.65,330.23l-16.22-16.34s-4.31-4.65-7.23-1.71,2.61,7.47,2.61,7.47l16,16.09" transform="translate(-783.68 -309.03)"/><path class="cls-2" d="M1260.4,335.41l-16.22-16.33s-4.31-4.65-7.23-1.72,2.61,7.47,2.61,7.47l16,16.09" transform="translate(-783.68 -309.03)"/><path class="cls-2" d="M1255.39,340.68l-16.22-16.33s-4.31-4.65-7.23-1.72,2.61,7.47,2.61,7.47l16,16.09" transform="translate(-783.68 -309.03)"/><path class="cls-2" d="M1250.32,346.06l-16.21-16.34s-4.32-4.65-7.23-1.71,2.6,7.47,2.6,7.47l16,16.09" transform="translate(-783.68 -309.03)"/><path class="cls-2" d="M1310.06,365.26c7.2-7.25,8.62-17.56,3.19-23l-3.76-3.78L1290,318.78s-3.15-3-5.8-.34.54,5.87.54,5.87l3.94,4-14.55-14.66s-2.27-2.28-4.28-.25L1253,330.3s-1.94,1.79,2.13,5.88l32,32.29c5.44,5.48,15.68,4,22.87-3.21Z" transform="translate(-783.68 -309.03)"/><path class="cls-2" d="M1290.47,330l-16.22-16.34S1269.94,309,1267,312s2.6,7.47,2.6,7.47l16,16.09" transform="translate(-783.68 -309.03)"/><path class="cls-2" d="M1285.23,335.21,1269,318.87s-4.32-4.65-7.23-1.71,2.6,7.47,2.6,7.47l16,16.09" transform="translate(-783.68 -309.03)"/><path class="cls-2" d="M1280.21,340.48,1264,324.14s-4.31-4.65-7.23-1.71,2.61,7.47,2.61,7.47l16,16.09" transform="translate(-783.68 -309.03)"/><path class="cls-2" d="M1275.15,345.86l-16.22-16.34s-4.31-4.65-7.23-1.71,2.61,7.47,2.61,7.47l16,16.09" transform="translate(-783.68 -309.03)"/><path class="cls-2" d="M1317,365.47c7.2-7.25,8.63-17.57,3.19-23l-3.75-3.78L1296.93,319s-3.16-3-5.8-.34.54,5.87.54,5.87l3.94,4-14.56-14.66s-2.26-2.29-4.28-.25L1260,330.51s-1.93,1.78,2.13,5.88l32.05,32.29c5.44,5.47,15.68,4,22.87-3.21Z" transform="translate(-783.68 -309.03)"/><path class="cls-2" d="M1297.43,330.23l-16.22-16.34s-4.32-4.65-7.23-1.71,2.6,7.47,2.6,7.47l16,16.09" transform="translate(-783.68 -309.03)"/><path class="cls-2" d="M1292.18,335.41,1276,319.08s-4.31-4.65-7.23-1.72,2.61,7.47,2.61,7.47l16,16.09" transform="translate(-783.68 -309.03)"/><path class="cls-2" d="M1287.17,340.68,1271,324.35s-4.32-4.65-7.23-1.72,2.6,7.47,2.6,7.47l16,16.09" transform="translate(-783.68 -309.03)"/><path class="cls-2" d="M1282.1,346.06l-16.22-16.34s-4.31-4.65-7.23-1.71,2.61,7.47,2.61,7.47l16,16.09" transform="translate(-783.68 -309.03)"/><path class="cls-2" d="M1341.84,365.26c7.19-7.25,8.62-17.56,3.18-23l-3.75-3.78-19.52-19.66s-3.16-3-5.8-.34.54,5.87.54,5.87l3.94,4-14.55-14.66s-2.27-2.28-4.29-.25l-16.81,16.93s-1.93,1.79,2.13,5.88L1319,368.47c5.43,5.48,15.67,4,22.87-3.21Z" transform="translate(-783.68 -309.03)"/><path class="cls-2" d="M1322.25,330,1306,313.68s-4.31-4.64-7.23-1.71,2.61,7.47,2.61,7.47l16,16.09" transform="translate(-783.68 -309.03)"/><path class="cls-2" d="M1317,335.21l-16.22-16.34s-4.31-4.65-7.23-1.71,2.61,7.47,2.61,7.47l16,16.09" transform="translate(-783.68 -309.03)"/><path class="cls-2" d="M1312,340.48l-16.22-16.34s-4.31-4.65-7.23-1.71,2.61,7.47,2.61,7.47l16,16.09" transform="translate(-783.68 -309.03)"/><path class="cls-2" d="M1306.92,345.86l-16.21-16.34s-4.32-4.65-7.23-1.71,2.6,7.47,2.6,7.47l16,16.09" transform="translate(-783.68 -309.03)"/><path class="cls-2" d="M1348.79,365.47c7.2-7.25,8.62-17.57,3.19-23l-3.76-3.78L1328.7,319s-3.15-3-5.8-.34.54,5.87.54,5.87l3.94,4-14.55-14.66s-2.27-2.29-4.28-.25l-16.81,16.93s-1.94,1.78,2.13,5.88l32.05,32.29c5.44,5.47,15.68,4,22.87-3.21Z" transform="translate(-783.68 -309.03)"/><path class="cls-2" d="M1329.2,330.23,1313,313.89s-4.31-4.65-7.22-1.71,2.6,7.47,2.6,7.47l16,16.09" transform="translate(-783.68 -309.03)"/><path class="cls-2" d="M1324,335.41l-16.21-16.33s-4.32-4.65-7.23-1.72,2.6,7.47,2.6,7.47l16,16.09" transform="translate(-783.68 -309.03)"/><path class="cls-2" d="M1318.94,340.68l-16.22-16.33s-4.31-4.65-7.23-1.72,2.61,7.47,2.61,7.47l16,16.09" transform="translate(-783.68 -309.03)"/><path class="cls-2" d="M1313.88,346.06l-16.22-16.34s-4.32-4.65-7.23-1.71,2.61,7.47,2.61,7.47l16,16.09" transform="translate(-783.68 -309.03)"/><path class="cls-2" d="M1373.61,365.26c7.2-7.25,8.63-17.56,3.19-23l-3.75-3.78-19.52-19.66s-3.16-3-5.8-.34.54,5.87.54,5.87l3.94,4-14.56-14.66s-2.26-2.28-4.28-.25l-16.81,16.93s-1.93,1.79,2.13,5.88l32,32.29c5.44,5.48,15.68,4,22.87-3.21Z" transform="translate(-783.68 -309.03)"/><path class="cls-2" d="M1354,330l-16.22-16.34s-4.32-4.64-7.23-1.71,2.6,7.47,2.6,7.47l16,16.09" transform="translate(-783.68 -309.03)"/><path class="cls-2" d="M1348.78,335.21l-16.22-16.34s-4.31-4.65-7.23-1.71,2.61,7.47,2.61,7.47l16,16.09" transform="translate(-783.68 -309.03)"/><path class="cls-2" d="M1343.77,340.48l-16.22-16.34s-4.32-4.65-7.23-1.71,2.6,7.47,2.6,7.47l16,16.09" transform="translate(-783.68 -309.03)"/><path class="cls-2" d="M1338.7,345.86l-16.22-16.34s-4.31-4.65-7.23-1.71,2.61,7.47,2.61,7.47l16,16.09" transform="translate(-783.68 -309.03)"/><path class="cls-2" d="M1380.57,365.47c7.19-7.25,8.62-17.57,3.18-23l-3.75-3.78L1360.48,319s-3.16-3-5.8-.34.54,5.87.54,5.87l3.94,4-14.55-14.66s-2.27-2.29-4.29-.25l-16.81,16.93s-1.93,1.78,2.13,5.88l32.06,32.29c5.43,5.47,15.67,4,22.87-3.21Z" transform="translate(-783.68 -309.03)"/><path class="cls-2" d="M1361,330.23l-16.22-16.34s-4.31-4.65-7.23-1.71,2.61,7.47,2.61,7.47l16,16.09" transform="translate(-783.68 -309.03)"/><path class="cls-2" d="M1355.73,335.41l-16.22-16.33s-4.31-4.65-7.23-1.72,2.61,7.47,2.61,7.47l16,16.09" transform="translate(-783.68 -309.03)"/><path class="cls-2" d="M1350.72,340.68l-16.22-16.33s-4.31-4.65-7.23-1.72,2.61,7.47,2.61,7.47l16,16.09" transform="translate(-783.68 -309.03)"/><path class="cls-2" d="M1345.65,346.06l-16.21-16.34s-4.32-4.65-7.23-1.71,2.6,7.47,2.6,7.47l16,16.09" transform="translate(-783.68 -309.03)"/><path class="cls-3" d="M1244.11,423.42c9.42-9.49,11.29-23,4.17-30.18l-4.92-4.95-25.57-25.76s-4.14-3.93-7.6-.44.71,7.69.71,7.69l5.16,5.2L1197,355.77s-3-3-5.61-.33l-22,22.18s-2.54,2.34,2.79,7.71l42,42.3c7.12,7.17,20.54,5.29,30-4.21Z" transform="translate(-783.68 -309.03)"/><path class="cls-3" d="M1218.44,377.26l-21.25-21.41s-5.65-6.09-9.47-2.24,3.42,9.79,3.42,9.79l20.92,21.08" transform="translate(-783.68 -309.03)"/><path class="cls-3" d="M1211.57,384.05l-21.25-21.4s-5.65-6.09-9.47-2.25,3.41,9.79,3.41,9.79l20.93,21.08" transform="translate(-783.68 -309.03)"/><path class="cls-3" d="M1205,391l-21.25-21.4s-5.65-6.09-9.47-2.24,3.41,9.78,3.41,9.78l20.93,21.08" transform="translate(-783.68 -309.03)"/><path class="cls-3" d="M1198.36,398l-21.24-21.4s-5.66-6.09-9.48-2.25,3.42,9.79,3.42,9.79L1192,405.22" transform="translate(-783.68 -309.03)"/><path class="cls-3" d="M1253.21,423.69c9.43-9.49,11.3-23,4.18-30.18l-4.92-4.95L1226.9,362.8s-4.14-3.93-7.6-.44.71,7.68.71,7.68l5.16,5.21L1206.1,356s-3-3-5.61-.33l-22,22.18s-2.54,2.34,2.79,7.71l42,42.3c7.12,7.17,20.54,5.29,30-4.21Z" transform="translate(-783.68 -309.03)"/><path class="cls-3" d="M1227.55,377.53l-21.25-21.41s-5.65-6.09-9.47-2.24,3.42,9.78,3.42,9.78l20.92,21.09" transform="translate(-783.68 -309.03)"/><path class="cls-3" d="M1220.68,384.32l-21.25-21.41s-5.65-6.09-9.47-2.24,3.41,9.79,3.41,9.79l20.93,21.08" transform="translate(-783.68 -309.03)"/><path class="cls-3" d="M1214.11,391.22l-21.25-21.4s-5.65-6.09-9.47-2.24,3.41,9.78,3.41,9.78l20.93,21.08" transform="translate(-783.68 -309.03)"/><path class="cls-3" d="M1207.47,398.27l-21.25-21.41s-5.65-6.09-9.47-2.24,3.42,9.79,3.42,9.79l20.93,21.08" transform="translate(-783.68 -309.03)"/><path class="cls-3" d="M1285.74,423.42c9.42-9.49,11.29-23,4.17-30.18l-4.92-4.95-25.57-25.76s-4.14-3.93-7.6-.44.71,7.69.71,7.69l5.16,5.2-19.07-19.21s-3-3-5.61-.33l-22,22.18s-2.53,2.34,2.79,7.71l42,42.3c7.12,7.17,20.54,5.29,30-4.21Z" transform="translate(-783.68 -309.03)"/><path class="cls-3" d="M1260.07,377.26l-21.24-21.41s-5.66-6.09-9.48-2.24,3.42,9.79,3.42,9.79l20.93,21.08" transform="translate(-783.68 -309.03)"/><path class="cls-3" d="M1253.2,384.05,1232,362.65s-5.65-6.09-9.47-2.25,3.41,9.79,3.41,9.79l20.93,21.08" transform="translate(-783.68 -309.03)"/><path class="cls-3" d="M1246.63,391l-21.25-21.4s-5.65-6.09-9.47-2.24,3.41,9.78,3.41,9.78l20.93,21.08" transform="translate(-783.68 -309.03)"/><path class="cls-3" d="M1240,398l-21.25-21.4s-5.65-6.09-9.47-2.25,3.41,9.79,3.41,9.79l20.93,21.08" transform="translate(-783.68 -309.03)"/><path class="cls-3" d="M1294.85,423.69c9.42-9.49,11.29-23,4.17-30.18l-4.92-4.95-25.57-25.76s-4.14-3.93-7.6-.44.71,7.68.71,7.68l5.16,5.21L1247.73,356s-3-3-5.61-.33l-22,22.18s-2.53,2.34,2.79,7.71l42,42.3c7.12,7.17,20.54,5.29,30-4.21Z" transform="translate(-783.68 -309.03)"/><path class="cls-3" d="M1269.18,377.53l-21.25-21.41s-5.65-6.09-9.47-2.24,3.42,9.78,3.42,9.78l20.93,21.09" transform="translate(-783.68 -309.03)"/><path class="cls-3" d="M1262.31,384.32l-21.25-21.41s-5.65-6.09-9.47-2.24,3.41,9.79,3.41,9.79l20.93,21.08" transform="translate(-783.68 -309.03)"/><path class="cls-3" d="M1255.74,391.22l-21.25-21.4s-5.65-6.09-9.47-2.24,3.41,9.78,3.41,9.78l20.93,21.08" transform="translate(-783.68 -309.03)"/><path class="cls-3" d="M1249.1,398.27l-21.24-21.41s-5.66-6.09-9.47-2.24,3.41,9.79,3.41,9.79l20.93,21.08" transform="translate(-783.68 -309.03)"/><path class="cls-3" d="M1327.37,423.42c9.42-9.49,11.29-23,4.17-30.18l-4.91-4.95-25.58-25.76s-4.14-3.93-7.6-.44.71,7.69.71,7.69l5.16,5.2-19.07-19.21s-3-3-5.61-.33l-22,22.18s-2.53,2.34,2.79,7.71l42,42.3c7.13,7.17,20.54,5.29,30-4.21Z" transform="translate(-783.68 -309.03)"/><path class="cls-3" d="M1301.71,377.26l-21.25-21.41s-5.66-6.09-9.47-2.24,3.41,9.79,3.41,9.79l20.93,21.08" transform="translate(-783.68 -309.03)"/><path class="cls-3" d="M1294.83,384.05l-21.25-21.4s-5.65-6.09-9.47-2.25,3.41,9.79,3.41,9.79l20.93,21.08" transform="translate(-783.68 -309.03)"/><path class="cls-3" d="M1288.26,391,1267,369.55s-5.65-6.09-9.47-2.24,3.42,9.78,3.42,9.78l20.92,21.08" transform="translate(-783.68 -309.03)"/><path class="cls-3" d="M1281.63,398l-21.25-21.4s-5.65-6.09-9.47-2.25,3.41,9.79,3.41,9.79l20.93,21.08" transform="translate(-783.68 -309.03)"/><path class="cls-3" d="M1336.48,423.69c9.42-9.49,11.29-23,4.17-30.18l-4.92-4.95-25.57-25.76s-4.14-3.93-7.6-.44.71,7.68.71,7.68l5.16,5.21L1289.36,356s-3-3-5.61-.33l-22,22.18s-2.53,2.34,2.79,7.71l42,42.3c7.13,7.17,20.54,5.29,30-4.21Z" transform="translate(-783.68 -309.03)"/><path class="cls-3" d="M1310.81,377.53l-21.24-21.41s-5.66-6.09-9.47-2.24,3.41,9.78,3.41,9.78l20.93,21.09" transform="translate(-783.68 -309.03)"/><path class="cls-3" d="M1303.94,384.32l-21.25-21.41s-5.65-6.09-9.47-2.24,3.41,9.79,3.41,9.79l20.93,21.08" transform="translate(-783.68 -309.03)"/><path class="cls-3" d="M1297.37,391.22l-21.25-21.4s-5.65-6.09-9.47-2.24,3.42,9.78,3.42,9.78L1291,398.44" transform="translate(-783.68 -309.03)"/><path class="cls-3" d="M1290.74,398.27l-21.25-21.41s-5.65-6.09-9.47-2.24,3.41,9.79,3.41,9.79l20.93,21.08" transform="translate(-783.68 -309.03)"/><path class="cls-3" d="M1369,423.42c9.43-9.49,11.3-23,4.17-30.18l-4.91-4.95-25.58-25.76s-4.13-3.93-7.6-.44.71,7.69.71,7.69L1341,375l-19.06-19.21s-3-3-5.62-.33l-22,22.18s-2.53,2.34,2.79,7.71l42,42.3c7.12,7.17,20.53,5.29,30-4.21Z" transform="translate(-783.68 -309.03)"/><path class="cls-3" d="M1343.34,377.26l-21.25-21.41s-5.65-6.09-9.47-2.24,3.41,9.79,3.41,9.79L1337,384.48" transform="translate(-783.68 -309.03)"/><path class="cls-3" d="M1336.46,384.05l-21.25-21.4s-5.65-6.09-9.47-2.25,3.42,9.79,3.42,9.79l20.92,21.08" transform="translate(-783.68 -309.03)"/><path class="cls-3" d="M1329.89,391l-21.25-21.4s-5.65-6.09-9.47-2.24,3.42,9.78,3.42,9.78l20.93,21.08" transform="translate(-783.68 -309.03)"/><path class="cls-3" d="M1323.26,398,1302,376.6s-5.65-6.09-9.47-2.25,3.41,9.79,3.41,9.79l20.93,21.08" transform="translate(-783.68 -309.03)"/><path class="cls-3" d="M1378.11,423.69c9.43-9.49,11.29-23,4.17-30.18l-4.91-4.95-25.58-25.76s-4.14-3.93-7.6-.44.71,7.68.71,7.68l5.16,5.21L1331,356s-3-3-5.61-.33l-22,22.18s-2.53,2.34,2.79,7.71l42,42.3c7.12,7.17,20.53,5.29,30-4.21Z" transform="translate(-783.68 -309.03)"/><path class="cls-3" d="M1352.45,377.53l-21.25-21.41s-5.65-6.09-9.47-2.24,3.41,9.78,3.41,9.78l20.93,21.09" transform="translate(-783.68 -309.03)"/><path class="cls-3" d="M1345.57,384.32l-21.25-21.41s-5.65-6.09-9.47-2.24,3.41,9.79,3.41,9.79l20.93,21.08" transform="translate(-783.68 -309.03)"/><path class="cls-3" d="M1339,391.22l-21.25-21.4s-5.65-6.09-9.47-2.24,3.42,9.78,3.42,9.78l20.92,21.08" transform="translate(-783.68 -309.03)"/><path class="cls-3" d="M1332.37,398.27l-21.25-21.41s-5.65-6.09-9.47-2.24,3.41,9.79,3.41,9.79L1326,405.49" transform="translate(-783.68 -309.03)"/><path class="cls-4" d="M1206,499c11.88-12,14.21-29.07,5.2-38.12l-6.22-6.24-32.34-32.47s-5.24-4.95-9.6-.54.91,9.71.91,9.71l6.53,6.56-24.12-24.21s-3.75-3.77-7.08-.41l-27.76,28.06s-3.19,3,3.54,9.72l53.12,53.32c9,9,25.94,6.63,37.82-5.38Z" transform="translate(-783.68 -309.03)"/><path class="cls-4" d="M1173.54,440.72l-26.88-27s-7.15-7.68-12-2.81,4.33,12.35,4.33,12.35l26.47,26.57" transform="translate(-783.68 -309.03)"/><path class="cls-4" d="M1164.87,449.31l-26.88-27s-7.15-7.67-12-2.81,4.33,12.35,4.33,12.35l26.47,26.57" transform="translate(-783.68 -309.03)"/><path class="cls-4" d="M1156.59,458l-26.87-27s-7.15-7.68-12-2.82,4.34,12.35,4.34,12.35l26.47,26.57" transform="translate(-783.68 -309.03)"/><path class="cls-4" d="M1148.23,467l-26.88-27s-7.14-7.68-12-2.81,4.33,12.35,4.33,12.35l26.47,26.57" transform="translate(-783.68 -309.03)"/><path class="cls-4" d="M1217.54,499.27c11.88-12,14.21-29.07,5.21-38.12l-6.22-6.24-32.35-32.47s-5.23-4.95-9.6-.54.91,9.71.91,9.71l6.53,6.55L1157.91,414s-3.76-3.78-7.09-.41l-27.76,28.06s-3.19,3,3.54,9.72l53.12,53.32c9,9,25.94,6.63,37.82-5.38Z" transform="translate(-783.68 -309.03)"/><path class="cls-4" d="M1185,441l-26.88-27s-7.15-7.68-12-2.81,4.33,12.35,4.33,12.35L1177,450.17" transform="translate(-783.68 -309.03)"/><path class="cls-4" d="M1176.37,449.63l-26.87-27s-7.15-7.67-12-2.81,4.33,12.35,4.33,12.35l26.47,26.57" transform="translate(-783.68 -309.03)"/><path class="cls-4" d="M1168.09,458.36l-26.87-27s-7.15-7.68-12-2.82,4.33,12.35,4.33,12.35l26.47,26.57" transform="translate(-783.68 -309.03)"/><path class="cls-4" d="M1159.73,467.27l-26.87-27s-7.15-7.68-12-2.82,4.34,12.35,4.34,12.35l26.47,26.57" transform="translate(-783.68 -309.03)"/><path class="cls-4" d="M1258.6,498.86c11.89-12,14.22-29.08,5.21-38.12l-6.22-6.24L1225.24,422s-5.23-4.95-9.6-.54.92,9.71.92,9.71l6.53,6.55L1199,413.54s-3.76-3.77-7.09-.4l-27.75,28.06s-3.2,3,3.54,9.72l53.11,53.32c9,9,25.94,6.63,37.82-5.38Z" transform="translate(-783.68 -309.03)"/><path class="cls-4" d="M1226.1,440.63l-26.88-27s-7.15-7.68-12-2.81,4.33,12.35,4.33,12.35l26.47,26.57" transform="translate(-783.68 -309.03)"/><path class="cls-4" d="M1217.43,449.22l-26.87-27s-7.15-7.68-12-2.81,4.34,12.35,4.34,12.35l26.47,26.57" transform="translate(-783.68 -309.03)"/><path class="cls-4" d="M1209.16,458l-26.88-27s-7.15-7.67-12-2.81,4.33,12.35,4.33,12.35l26.47,26.57" transform="translate(-783.68 -309.03)"/><path class="cls-4" d="M1200.79,466.86l-26.87-27s-7.15-7.67-12-2.81,4.33,12.35,4.33,12.35L1192.76,476" transform="translate(-783.68 -309.03)"/><path class="cls-4" d="M1270.11,499.18c11.88-12,14.21-29.08,5.2-38.12l-6.22-6.24-32.34-32.47s-5.24-5-9.6-.54.91,9.71.91,9.71l6.53,6.55-24.12-24.21s-3.75-3.77-7.09-.4l-27.75,28.06s-3.19,3,3.54,9.72l53.11,53.31c9,9.05,26,6.64,37.83-5.37Z" transform="translate(-783.68 -309.03)"/><path class="cls-4" d="M1237.6,440.94l-26.87-27s-7.15-7.68-12-2.81,4.34,12.34,4.34,12.34l26.47,26.57" transform="translate(-783.68 -309.03)"/><path class="cls-4" d="M1228.94,449.54l-26.88-27s-7.15-7.68-12-2.81,4.33,12.35,4.33,12.35l26.47,26.57" transform="translate(-783.68 -309.03)"/><path class="cls-4" d="M1220.66,458.27l-26.88-27s-7.15-7.68-12-2.81,4.33,12.35,4.33,12.35l26.47,26.57" transform="translate(-783.68 -309.03)"/><path class="cls-4" d="M1212.3,467.18l-26.88-27s-7.15-7.67-12-2.81,4.33,12.35,4.33,12.35l26.47,26.57" transform="translate(-783.68 -309.03)"/><path class="cls-4" d="M1311.17,498.77c11.88-12,14.21-29.08,5.2-38.12l-6.22-6.24-32.34-32.47s-5.24-4.95-9.6-.54.91,9.7.91,9.7l6.53,6.56-24.12-24.21s-3.75-3.77-7.08-.4l-27.76,28.05s-3.19,3,3.54,9.72l53.12,53.32c9,9,25.94,6.64,37.82-5.37Z" transform="translate(-783.68 -309.03)"/><path class="cls-4" d="M1278.66,440.53l-26.87-27s-7.15-7.67-12-2.81,4.33,12.35,4.33,12.35l26.47,26.57" transform="translate(-783.68 -309.03)"/><path class="cls-4" d="M1270,449.12l-26.88-27s-7.15-7.68-12-2.81,4.33,12.34,4.33,12.34L1262,458.25" transform="translate(-783.68 -309.03)"/><path class="cls-4" d="M1261.72,457.86l-26.87-27s-7.15-7.68-12-2.81,4.33,12.35,4.33,12.35L1253.68,467" transform="translate(-783.68 -309.03)"/><path class="cls-4" d="M1253.36,466.77l-26.88-27s-7.15-7.68-12-2.81,4.33,12.35,4.33,12.35l26.47,26.57" transform="translate(-783.68 -309.03)"/><path class="cls-4" d="M1322.67,499.08c11.88-12,14.21-29.07,5.2-38.11l-6.21-6.25-32.35-32.46s-5.23-5-9.6-.54.91,9.7.91,9.7l6.53,6.56L1263,413.77s-3.75-3.77-7.08-.41l-27.76,28.06s-3.19,3,3.54,9.72l53.12,53.32c9,9,25.94,6.64,37.82-5.38Z" transform="translate(-783.68 -309.03)"/><path class="cls-4" d="M1290.17,440.85l-26.88-27s-7.15-7.67-12-2.81,4.33,12.35,4.33,12.35L1282.13,450" transform="translate(-783.68 -309.03)"/><path class="cls-4" d="M1281.5,449.44l-26.88-27s-7.14-7.68-12-2.82S1247,432,1247,432l26.47,26.57" transform="translate(-783.68 -309.03)"/><path class="cls-4" d="M1273.22,458.18l-26.87-27s-7.15-7.68-12-2.81,4.34,12.35,4.34,12.35l26.47,26.57" transform="translate(-783.68 -309.03)"/><path class="cls-4" d="M1264.86,467.09l-26.87-27s-7.15-7.68-12-2.81,4.33,12.35,4.33,12.35l26.47,26.57" transform="translate(-783.68 -309.03)"/><path class="cls-4" d="M1363.73,498.67c11.88-12,14.21-29.07,5.21-38.12l-6.22-6.24-32.35-32.47s-5.23-4.95-9.6-.54.91,9.71.91,9.71l6.53,6.55-24.11-24.2s-3.76-3.78-7.09-.41L1269.26,441s-3.2,3,3.53,9.72l53.12,53.32c9,9,25.94,6.63,37.82-5.38Z" transform="translate(-783.68 -309.03)"/><path class="cls-4" d="M1331.23,440.44l-26.88-27s-7.15-7.68-12-2.81,4.33,12.35,4.33,12.35l26.47,26.57" transform="translate(-783.68 -309.03)"/><path class="cls-4" d="M1322.56,449l-26.87-27s-7.15-7.67-12-2.81,4.34,12.35,4.34,12.35l26.47,26.57" transform="translate(-783.68 -309.03)"/><path class="cls-4" d="M1314.29,457.76l-26.88-27s-7.15-7.68-12-2.82,4.33,12.35,4.33,12.35l26.47,26.57" transform="translate(-783.68 -309.03)"/><path class="cls-4" d="M1305.92,466.67l-26.87-27s-7.15-7.68-12-2.81,4.34,12.34,4.34,12.34l26.47,26.57" transform="translate(-783.68 -309.03)"/><path class="cls-4" d="M1375.24,499c11.88-12,14.21-29.08,5.2-38.12l-6.22-6.24-32.35-32.47s-5.23-5-9.59-.54.91,9.71.91,9.71l6.53,6.55-24.12-24.2s-3.76-3.78-7.09-.41l-27.75,28.06s-3.2,3,3.54,9.72l53.11,53.32c9,9,25.94,6.63,37.83-5.38Z" transform="translate(-783.68 -309.03)"/><path class="cls-4" d="M1342.73,440.76l-26.87-27s-7.15-7.68-12-2.81,4.33,12.35,4.33,12.35l26.47,26.57" transform="translate(-783.68 -309.03)"/><path class="cls-4" d="M1334.07,449.35l-26.88-27s-7.15-7.68-12-2.81,4.33,12.35,4.33,12.35L1326,458.48" transform="translate(-783.68 -309.03)"/><path class="cls-4" d="M1325.79,458.08l-26.88-27s-7.15-7.67-12-2.81,4.33,12.35,4.33,12.35l26.47,26.57" transform="translate(-783.68 -309.03)"/><path class="cls-4" d="M1317.43,467l-26.88-27s-7.15-7.68-12-2.82,4.33,12.35,4.33,12.35l26.47,26.57" transform="translate(-783.68 -309.03)"/><path class="cls-4" d="M1149.63,595.84c15.61-15.72,18.7-38.08,6.91-50l-8.14-8.19-42.32-42.64s-6.85-6.5-12.58-.73,1.17,12.73,1.17,12.73l8.54,8.6-31.56-31.79s-4.91-4.95-9.29-.54L1025.92,520s-4.2,3.88,4.61,12.75l69.51,70c11.79,11.87,34,8.76,49.59-7Z" transform="translate(-783.68 -309.03)"/><path class="cls-4" d="M1107.16,519.43,1072,484s-9.36-10.08-15.68-3.71,5.65,16.19,5.65,16.19l34.64,34.9" transform="translate(-783.68 -309.03)"/><path class="cls-4" d="M1095.78,530.67l-35.17-35.43s-9.36-10.08-15.68-3.71,5.65,16.2,5.65,16.2l34.64,34.89" transform="translate(-783.68 -309.03)"/><path class="cls-4" d="M1084.91,542.1l-35.17-35.43s-9.36-10.08-15.68-3.71,5.65,16.2,5.65,16.2l34.64,34.89" transform="translate(-783.68 -309.03)"/><path class="cls-4" d="M1073.92,553.76l-35.16-35.43s-9.36-10.08-15.68-3.71,5.65,16.2,5.65,16.2l34.64,34.89" transform="translate(-783.68 -309.03)"/><path class="cls-4" d="M1164.71,596.29c15.6-15.72,18.7-38.09,6.91-50l-8.14-8.2-42.33-42.64s-6.85-6.5-12.58-.73,1.17,12.73,1.17,12.73l8.55,8.61-31.56-31.79s-4.91-5-9.29-.55L1041,520.48s-4.19,3.87,4.62,12.75l69.51,70c11.78,11.87,34,8.75,49.59-7Z" transform="translate(-783.68 -309.03)"/><path class="cls-4" d="M1122.23,519.87l-35.17-35.43s-9.35-10.08-15.67-3.71,5.65,16.2,5.65,16.2l34.64,34.89" transform="translate(-783.68 -309.03)"/><path class="cls-4" d="M1110.85,531.12l-35.17-35.43s-9.35-10.08-15.67-3.71,5.65,16.19,5.65,16.19l34.64,34.9" transform="translate(-783.68 -309.03)"/><path class="cls-4" d="M1100,542.54l-35.17-35.42s-9.35-10.08-15.67-3.72,5.65,16.2,5.65,16.2l34.64,34.89" transform="translate(-783.68 -309.03)"/><path class="cls-4" d="M1089,554.21l-35.17-35.43s-9.35-10.08-15.67-3.71,5.65,16.19,5.65,16.19l34.64,34.9" transform="translate(-783.68 -309.03)"/><path class="cls-4" d="M1218.54,595.84c15.6-15.72,18.69-38.08,6.91-50l-8.14-8.19L1175,495.05s-6.85-6.5-12.58-.73,1.17,12.73,1.17,12.73l8.55,8.6-31.56-31.79s-4.91-4.95-9.29-.54L1094.82,520s-4.19,3.88,4.62,12.75l69.51,70c11.78,11.87,34,8.76,49.59-7Z" transform="translate(-783.68 -309.03)"/><path class="cls-4" d="M1176.06,519.43,1140.89,484s-9.35-10.08-15.67-3.71,5.65,16.19,5.65,16.19l34.64,34.9" transform="translate(-783.68 -309.03)"/><path class="cls-4" d="M1164.68,530.67l-35.17-35.43s-9.35-10.08-15.67-3.71,5.65,16.2,5.65,16.2l34.64,34.89" transform="translate(-783.68 -309.03)"/><path class="cls-4" d="M1153.81,542.1l-35.17-35.43s-9.35-10.08-15.67-3.71,5.65,16.2,5.65,16.2l34.64,34.89" transform="translate(-783.68 -309.03)"/><path class="cls-4" d="M1142.83,553.76l-35.17-35.43s-9.35-10.08-15.67-3.71,5.65,16.2,5.65,16.2l34.63,34.89" transform="translate(-783.68 -309.03)"/><path class="cls-4" d="M1233.62,596.29c15.6-15.72,18.69-38.09,6.9-50l-8.13-8.2-42.33-42.64s-6.85-6.5-12.58-.73,1.17,12.73,1.17,12.73l8.54,8.61-31.55-31.79s-4.92-5-9.29-.55l-36.45,36.72s-4.19,3.87,4.62,12.75l69.5,70c11.79,11.87,34,8.75,49.6-7Z" transform="translate(-783.68 -309.03)"/><path class="cls-4" d="M1191.14,519.87,1156,484.44s-9.35-10.08-15.67-3.71,5.65,16.2,5.65,16.2l34.63,34.89" transform="translate(-783.68 -309.03)"/><path class="cls-4" d="M1179.76,531.12l-35.17-35.43s-9.35-10.08-15.67-3.71,5.65,16.19,5.65,16.19l34.63,34.9" transform="translate(-783.68 -309.03)"/><path class="cls-4" d="M1168.89,542.54l-35.17-35.42S1124.37,497,1118,503.4s5.66,16.2,5.66,16.2l34.63,34.89" transform="translate(-783.68 -309.03)"/><path class="cls-4" d="M1157.91,554.21l-35.17-35.43s-9.36-10.08-15.68-3.71,5.65,16.19,5.65,16.19l34.64,34.9" transform="translate(-783.68 -309.03)"/><path class="cls-4" d="M1287.44,595.84c15.61-15.72,18.7-38.08,6.91-50l-8.13-8.19-42.33-42.64s-6.85-6.5-12.58-.73,1.17,12.73,1.17,12.73l8.54,8.6-31.56-31.79s-4.91-4.95-9.28-.54L1163.73,520s-4.2,3.88,4.61,12.75l69.51,70c11.79,11.87,34,8.76,49.59-7Z" transform="translate(-783.68 -309.03)"/><path class="cls-4" d="M1245,519.43,1209.8,484s-9.35-10.08-15.68-3.71,5.65,16.19,5.65,16.19l34.64,34.9" transform="translate(-783.68 -309.03)"/><path class="cls-4" d="M1233.59,530.67l-35.17-35.43s-9.36-10.08-15.68-3.71,5.65,16.2,5.65,16.2L1223,542.62" transform="translate(-783.68 -309.03)"/><path class="cls-4" d="M1222.72,542.1l-35.17-35.43s-9.36-10.08-15.68-3.71,5.65,16.2,5.65,16.2l34.64,34.89" transform="translate(-783.68 -309.03)"/><path class="cls-4" d="M1211.74,553.76l-35.17-35.43s-9.36-10.08-15.68-3.71,5.65,16.2,5.65,16.2l34.64,34.89" transform="translate(-783.68 -309.03)"/><path class="cls-4" d="M1302.52,596.29c15.6-15.72,18.7-38.09,6.91-50l-8.14-8.2L1259,495.49s-6.85-6.5-12.59-.73,1.18,12.73,1.18,12.73l8.54,8.61-31.56-31.79s-4.91-5-9.29-.55l-36.44,36.72s-4.2,3.87,4.61,12.75l69.51,70c11.79,11.87,34,8.75,49.59-7Z" transform="translate(-783.68 -309.03)"/><path class="cls-4" d="M1260.05,519.87l-35.17-35.43s-9.36-10.08-15.68-3.71,5.65,16.2,5.65,16.2l34.64,34.89" transform="translate(-783.68 -309.03)"/><path class="cls-4" d="M1248.67,531.12l-35.17-35.43s-9.36-10.08-15.68-3.71,5.65,16.19,5.65,16.19l34.64,34.9" transform="translate(-783.68 -309.03)"/><path class="cls-4" d="M1237.8,542.54l-35.17-35.42S1193.27,497,1187,503.4s5.65,16.2,5.65,16.2l34.64,34.89" transform="translate(-783.68 -309.03)"/><path class="cls-4" d="M1226.81,554.21l-35.17-35.43s-9.35-10.08-15.67-3.71,5.65,16.19,5.65,16.19l34.64,34.9" transform="translate(-783.68 -309.03)"/><path class="cls-4" d="M1356.35,595.84c15.6-15.72,18.7-38.08,6.91-50l-8.14-8.19-42.33-42.64s-6.85-6.5-12.58-.73,1.17,12.73,1.17,12.73l8.55,8.6-31.56-31.79s-4.91-4.95-9.29-.54L1232.63,520s-4.19,3.88,4.62,12.75l69.51,70c11.78,11.87,34,8.76,49.59-7Z" transform="translate(-783.68 -309.03)"/><path class="cls-4" d="M1313.87,519.43,1278.71,484s-9.36-10.08-15.68-3.71,5.65,16.19,5.65,16.19l34.64,34.9" transform="translate(-783.68 -309.03)"/><path class="cls-4" d="M1302.49,530.67l-35.16-35.43s-9.36-10.08-15.68-3.71,5.65,16.2,5.65,16.2l34.64,34.89" transform="translate(-783.68 -309.03)"/><path class="cls-4" d="M1291.62,542.1l-35.16-35.43s-9.36-10.08-15.68-3.71,5.65,16.2,5.65,16.2l34.64,34.89" transform="translate(-783.68 -309.03)"/><path class="cls-4" d="M1280.64,553.76l-35.17-35.43s-9.35-10.08-15.67-3.71,5.65,16.2,5.65,16.2l34.64,34.89" transform="translate(-783.68 -309.03)"/><path class="cls-4" d="M1371.43,596.29c15.6-15.72,18.69-38.09,6.91-50l-8.14-8.2-42.33-42.64s-6.85-6.5-12.58-.73,1.17,12.73,1.17,12.73l8.55,8.61-31.56-31.79s-4.92-5-9.29-.55l-36.45,36.72s-4.19,3.87,4.62,12.75l69.5,70c11.79,11.87,34,8.75,49.6-7Z" transform="translate(-783.68 -309.03)"/><path class="cls-4" d="M1329,519.87l-35.17-35.43s-9.35-10.08-15.67-3.71,5.65,16.2,5.65,16.2l34.64,34.89" transform="translate(-783.68 -309.03)"/><path class="cls-4" d="M1317.57,531.12l-35.17-35.43s-9.35-10.08-15.67-3.71,5.65,16.19,5.65,16.19l34.64,34.9" transform="translate(-783.68 -309.03)"/><path class="cls-4" d="M1306.7,542.54l-35.17-35.42s-9.35-10.08-15.67-3.72,5.65,16.2,5.65,16.2l34.64,34.89" transform="translate(-783.68 -309.03)"/><path class="cls-4" d="M1295.72,554.21l-35.17-35.43s-9.35-10.08-15.68-3.71,5.65,16.19,5.65,16.19l34.64,34.9" transform="translate(-783.68 -309.03)"/><path class="cls-5" d="M1080,723.27c20.26-20.4,24.27-49.43,9-64.84l-10.56-10.64-54.94-55.35s-8.89-8.44-16.33-.94,1.52,16.51,1.52,16.51l11.09,11.18-41-41.27s-6.37-6.43-12-.71l-47.31,47.66s-5.44,5,6,16.55l90.22,90.88c15.3,15.42,44.12,11.37,64.37-9Z" transform="translate(-783.68 -309.03)"/><path class="cls-5" d="M1024.84,624.08l-45.65-46s-12.14-13.08-20.35-4.82,7.34,21,7.34,21l45,45.29" transform="translate(-783.68 -309.03)"/><path class="cls-5" d="M1010.07,638.68l-45.65-46s-12.14-13.08-20.35-4.81,7.34,21,7.34,21l45,45.29" transform="translate(-783.68 -309.03)"/><path class="cls-5" d="M996,653.51l-45.65-46s-12.14-13.09-20.35-4.82,7.34,21,7.34,21l45,45.29" transform="translate(-783.68 -309.03)"/><path class="cls-5" d="M981.7,668.65l-45.65-46s-12.14-13.09-20.34-4.82,7.33,21,7.33,21l45,45.29" transform="translate(-783.68 -309.03)"/><path class="cls-5" d="M1099.55,723.85c20.25-20.4,24.26-49.43,9-64.85L1098,648.36,1043,593s-8.89-8.44-16.33-.95,1.52,16.52,1.52,16.52l11.09,11.17-41-41.26s-6.38-6.43-12.06-.71L939,625.45s-5.44,5,6,16.55l90.22,90.88c15.3,15.41,44.12,11.37,64.38-9Z" transform="translate(-783.68 -309.03)"/><path class="cls-5" d="M1044.41,624.66l-45.65-46s-12.14-13.09-20.35-4.82,7.34,21,7.34,21l45,45.29" transform="translate(-783.68 -309.03)"/><path class="cls-5" d="M1029.64,639.26l-45.65-46s-12.14-13.08-20.35-4.82,7.34,21,7.34,21l45,45.29" transform="translate(-783.68 -309.03)"/><path class="cls-5" d="M1015.53,654.09l-45.65-46s-12.14-13.09-20.35-4.82,7.34,21,7.34,21l45,45.29" transform="translate(-783.68 -309.03)"/><path class="cls-5" d="M1001.28,669.23l-45.65-46s-12.15-13.08-20.35-4.82,7.33,21,7.33,21l45,45.29" transform="translate(-783.68 -309.03)"/><path class="cls-5" d="M1169.42,723.27c20.25-20.4,24.26-49.43,9-64.84l-10.56-10.64-54.94-55.35s-8.89-8.44-16.33-.94,1.52,16.51,1.52,16.51l11.09,11.18-41-41.27s-6.38-6.43-12.06-.71l-47.31,47.66s-5.44,5,6,16.55L1105,732.3c15.3,15.42,44.12,11.37,64.38-9Z" transform="translate(-783.68 -309.03)"/><path class="cls-5" d="M1114.28,624.08l-45.65-46s-12.14-13.08-20.35-4.82,7.34,21,7.34,21l45,45.29" transform="translate(-783.68 -309.03)"/><path class="cls-5" d="M1099.51,638.68l-45.65-46s-12.14-13.08-20.35-4.81,7.34,21,7.34,21l45,45.29" transform="translate(-783.68 -309.03)"/><path class="cls-5" d="M1085.4,653.51l-45.65-46s-12.14-13.09-20.35-4.82,7.34,21,7.34,21l45,45.29" transform="translate(-783.68 -309.03)"/><path class="cls-5" d="M1071.15,668.65l-45.65-46s-12.15-13.09-20.35-4.82,7.33,21,7.33,21l45,45.29" transform="translate(-783.68 -309.03)"/><path class="cls-5" d="M1189,723.85c20.25-20.4,24.26-49.43,9-64.85l-10.56-10.64L1132.45,593s-8.89-8.44-16.33-.95,1.52,16.52,1.52,16.52l11.09,11.17-41-41.26s-6.38-6.43-12.06-.71l-47.31,47.66s-5.44,5,6,16.55l90.22,90.88c15.3,15.41,44.12,11.37,64.38-9Z" transform="translate(-783.68 -309.03)"/><path class="cls-5" d="M1133.85,624.66l-45.65-46s-12.14-13.09-20.35-4.82,7.34,21,7.34,21l45,45.29" transform="translate(-783.68 -309.03)"/><path class="cls-5" d="M1119.08,639.26l-45.65-46s-12.14-13.08-20.35-4.82,7.34,21,7.34,21l45,45.29" transform="translate(-783.68 -309.03)"/><path class="cls-5" d="M1105,654.09l-45.65-46S1047.18,595,1039,603.29s7.34,21,7.34,21l45,45.29" transform="translate(-783.68 -309.03)"/><path class="cls-5" d="M1090.72,669.23l-45.65-46s-12.15-13.08-20.35-4.82,7.33,21,7.33,21l45,45.29" transform="translate(-783.68 -309.03)"/><path class="cls-5" d="M1258.86,723.27c20.25-20.4,24.26-49.43,9-64.84l-10.56-10.64-54.94-55.35s-8.89-8.44-16.33-.94,1.52,16.51,1.52,16.51l11.09,11.18-41-41.27s-6.38-6.43-12.06-.71l-47.31,47.66s-5.44,5,6,16.55l90.22,90.88c15.3,15.42,44.12,11.37,64.38-9Z" transform="translate(-783.68 -309.03)"/><path class="cls-5" d="M1203.72,624.08l-45.65-46s-12.14-13.08-20.35-4.82,7.34,21,7.34,21l45,45.29" transform="translate(-783.68 -309.03)"/><path class="cls-5" d="M1189,638.68l-45.65-46s-12.14-13.08-20.35-4.81,7.34,21,7.34,21l45,45.29" transform="translate(-783.68 -309.03)"/><path class="cls-5" d="M1174.84,653.51l-45.65-46s-12.14-13.09-20.35-4.82,7.34,21,7.34,21l45,45.29" transform="translate(-783.68 -309.03)"/><path class="cls-5" d="M1160.59,668.65l-45.65-46s-12.15-13.09-20.35-4.82,7.33,21,7.33,21l45,45.29" transform="translate(-783.68 -309.03)"/><path class="cls-5" d="M1278.43,723.85c20.25-20.4,24.26-49.43,9-64.85l-10.56-10.64L1221.89,593s-8.89-8.44-16.33-.95,1.52,16.52,1.52,16.52l11.09,11.17-41-41.26s-6.38-6.43-12.06-.71l-47.31,47.66s-5.44,5,6,16.55l90.22,90.88c15.3,15.41,44.12,11.37,64.38-9Z" transform="translate(-783.68 -309.03)"/><path class="cls-5" d="M1223.29,624.66l-45.65-46s-12.14-13.09-20.34-4.82,7.33,21,7.33,21l45,45.29" transform="translate(-783.68 -309.03)"/><path class="cls-5" d="M1208.52,639.26l-45.65-46s-12.14-13.08-20.35-4.82,7.34,21,7.34,21l45,45.29" transform="translate(-783.68 -309.03)"/><path class="cls-5" d="M1194.41,654.09l-45.65-46s-12.14-13.09-20.35-4.82,7.34,21,7.34,21l45,45.29" transform="translate(-783.68 -309.03)"/><path class="cls-5" d="M1180.16,669.23l-45.65-46s-12.15-13.08-20.35-4.82,7.33,21,7.33,21l45,45.29" transform="translate(-783.68 -309.03)"/><path class="cls-5" d="M1348.3,723.27c20.25-20.4,24.26-49.43,9-64.84l-10.56-10.64-54.94-55.35s-8.89-8.44-16.33-.94S1277,608,1277,608L1288,619.19l-41-41.27s-6.38-6.43-12.06-.71l-47.31,47.66s-5.44,5,6,16.55l90.22,90.88c15.3,15.42,44.12,11.37,64.38-9Z" transform="translate(-783.68 -309.03)"/><path class="cls-5" d="M1293.16,624.08l-45.65-46s-12.14-13.08-20.34-4.82,7.33,21,7.33,21l45,45.29" transform="translate(-783.68 -309.03)"/><path class="cls-5" d="M1278.39,638.68l-45.65-46s-12.14-13.08-20.35-4.81,7.34,21,7.34,21l45,45.29" transform="translate(-783.68 -309.03)"/><path class="cls-5" d="M1264.28,653.51l-45.65-46s-12.14-13.09-20.35-4.82,7.34,21,7.34,21l45,45.29" transform="translate(-783.68 -309.03)"/><path class="cls-5" d="M1250,668.65l-45.65-46s-12.15-13.09-20.35-4.82,7.33,21,7.33,21l45,45.29" transform="translate(-783.68 -309.03)"/><path class="cls-5" d="M1367.87,723.85c20.25-20.4,24.26-49.43,9-64.85l-10.57-10.64L1311.33,593s-8.89-8.44-16.33-.95,1.52,16.52,1.52,16.52l11.09,11.17-41-41.26s-6.38-6.43-12.06-.71l-47.31,47.66s-5.44,5,6,16.55l90.22,90.88c15.3,15.41,44.12,11.37,64.38-9Z" transform="translate(-783.68 -309.03)"/><path class="cls-5" d="M1312.73,624.66l-45.65-46s-12.14-13.09-20.34-4.82,7.33,21,7.33,21l45,45.29" transform="translate(-783.68 -309.03)"/><path class="cls-5" d="M1298,639.26l-45.65-46s-12.14-13.08-20.35-4.82,7.34,21,7.34,21l45,45.29" transform="translate(-783.68 -309.03)"/><path class="cls-5" d="M1283.85,654.09l-45.65-46s-12.14-13.09-20.35-4.82,7.34,21,7.34,21l45,45.29" transform="translate(-783.68 -309.03)"/><path class="cls-5" d="M1269.6,669.23l-45.65-46s-12.14-13.08-20.35-4.82,7.33,21,7.33,21l45,45.29" transform="translate(-783.68 -309.03)"/><path class="cls-5" d="M999.09,886.49c25.84-26,31-63.07,11.45-82.73l-13.48-13.58L927,719.57s-11.34-10.77-20.83-1.21,1.94,21.08,1.94,21.08l14.15,14.25L870,701s-8.13-8.2-15.38-.9l-60.36,60.8s-7,6.43,7.64,21.12L917,898c19.52,19.66,56.3,14.5,82.13-11.53Z" transform="translate(-783.68 -309.03)"/><path class="cls-5" d="M928.75,759.94l-58.24-58.67s-15.49-16.69-26-6.15S853.9,722,853.9,722l57.37,57.78" transform="translate(-783.68 -309.03)"/><path class="cls-5" d="M909.9,778.56l-58.24-58.67s-15.49-16.69-26-6.15,9.36,26.83,9.36,26.83l57.36,57.78" transform="translate(-783.68 -309.03)"/><path class="cls-5" d="M891.9,797.49l-58.24-58.67s-15.49-16.7-26-6.15,9.36,26.83,9.36,26.83l57.36,57.78" transform="translate(-783.68 -309.03)"/><path class="cls-5" d="M873.72,816.8l-58.25-58.67s-15.49-16.69-26-6.15,9.36,26.83,9.36,26.83l57.36,57.78" transform="translate(-783.68 -309.03)"/><path class="cls-5" d="M1024.06,887.23c25.84-26,31-63.07,11.45-82.73L1022,790.92l-70.1-70.61s-11.34-10.77-20.83-1.21S933,740.17,933,740.17l14.15,14.26-52.27-52.65s-8.13-8.2-15.38-.9l-60.36,60.8s-6.95,6.42,7.64,21.12l115.11,116c19.52,19.67,56.29,14.51,82.13-11.52Z" transform="translate(-783.68 -309.03)"/><path class="cls-5" d="M953.72,760.68,895.48,702s-15.49-16.7-26-6.15,9.35,26.83,9.35,26.83l57.37,57.78" transform="translate(-783.68 -309.03)"/><path class="cls-5" d="M934.87,779.3l-58.24-58.67s-15.49-16.69-26-6.15S860,741.31,860,741.31l57.36,57.78" transform="translate(-783.68 -309.03)"/><path class="cls-5" d="M916.87,798.23l-58.24-58.67s-15.49-16.7-26-6.15S842,760.23,842,760.23L899.39,818" transform="translate(-783.68 -309.03)"/><path class="cls-5" d="M898.68,817.54l-58.24-58.67s-15.49-16.7-26-6.15,9.36,26.83,9.36,26.83l57.36,57.78" transform="translate(-783.68 -309.03)"/><path class="cls-5" d="M1111.76,886.49c25.84-26,31-63.07,11.44-82.73l-13.47-13.58-70.1-70.61s-11.35-10.77-20.84-1.21,1.94,21.08,1.94,21.08l14.15,14.25L982.62,701s-8.14-8.2-15.38-.9l-60.36,60.8s-7,6.43,7.64,21.12l115.11,116c19.52,19.66,56.29,14.5,82.13-11.53Z" transform="translate(-783.68 -309.03)"/><path class="cls-5" d="M1041.42,759.94l-58.25-58.67s-15.49-16.69-26-6.15S966.57,722,966.57,722l57.37,57.78" transform="translate(-783.68 -309.03)"/><path class="cls-5" d="M1022.57,778.56l-58.24-58.67s-15.49-16.69-26-6.15,9.35,26.83,9.35,26.83l57.37,57.78" transform="translate(-783.68 -309.03)"/><path class="cls-5" d="M1004.57,797.49l-58.24-58.67s-15.5-16.7-26-6.15,9.35,26.83,9.35,26.83l57.37,57.78" transform="translate(-783.68 -309.03)"/><path class="cls-5" d="M986.38,816.8l-58.24-58.67s-15.49-16.69-26-6.15,9.36,26.83,9.36,26.83l57.36,57.78" transform="translate(-783.68 -309.03)"/><path class="cls-5" d="M1136.73,887.23c25.84-26,31-63.07,11.44-82.73l-13.47-13.58-70.1-70.61s-11.35-10.77-20.84-1.21,1.94,21.07,1.94,21.07l14.15,14.26-52.26-52.65s-8.14-8.2-15.38-.9l-60.36,60.8s-7,6.42,7.64,21.12l115.11,116c19.52,19.67,56.29,14.51,82.13-11.52Z" transform="translate(-783.68 -309.03)"/><path class="cls-5" d="M1066.39,760.68,1008.14,702s-15.49-16.7-26-6.15,9.36,26.83,9.36,26.83l57.37,57.78" transform="translate(-783.68 -309.03)"/><path class="cls-5" d="M1047.54,779.3,989.3,720.63s-15.49-16.69-26-6.15,9.35,26.83,9.35,26.83l57.37,57.78" transform="translate(-783.68 -309.03)"/><path class="cls-5" d="M1029.54,798.23,971.3,739.56s-15.5-16.7-26-6.15,9.36,26.82,9.36,26.82L1012.06,818" transform="translate(-783.68 -309.03)"/><path class="cls-5" d="M1011.35,817.54l-58.24-58.67s-15.49-16.7-26-6.15,9.35,26.83,9.35,26.83l57.37,57.78" transform="translate(-783.68 -309.03)"/><path class="cls-5" d="M1224.43,886.49c25.84-26,31-63.07,11.44-82.73l-13.48-13.58-70.1-70.61s-11.34-10.77-20.83-1.21,1.94,21.08,1.94,21.08l14.15,14.25L1095.28,701s-8.13-8.2-15.38-.9l-60.36,60.8s-6.94,6.43,7.65,21.12L1142.3,898c19.52,19.66,56.29,14.5,82.13-11.53Z" transform="translate(-783.68 -309.03)"/><path class="cls-5" d="M1154.08,759.94l-58.24-58.67s-15.49-16.69-26-6.15,9.36,26.83,9.36,26.83l57.36,57.78" transform="translate(-783.68 -309.03)"/><path class="cls-5" d="M1135.24,778.56,1077,719.89s-15.49-16.69-26-6.15,9.36,26.83,9.36,26.83l57.37,57.78" transform="translate(-783.68 -309.03)"/><path class="cls-5" d="M1117.24,797.49,1059,738.82s-15.49-16.7-26-6.15,9.36,26.83,9.36,26.83l57.36,57.78" transform="translate(-783.68 -309.03)"/><path class="cls-5" d="M1099.05,816.8l-58.24-58.67s-15.5-16.69-26-6.15,9.36,26.83,9.36,26.83l57.37,57.78" transform="translate(-783.68 -309.03)"/><path class="cls-5" d="M1249.4,887.23c25.84-26,31-63.07,11.44-82.73l-13.48-13.58-70.1-70.61s-11.34-10.77-20.83-1.21,1.94,21.07,1.94,21.07l14.15,14.26-52.27-52.65s-8.13-8.2-15.38-.9l-60.36,60.8s-6.94,6.42,7.65,21.12l115.11,116c19.52,19.67,56.29,14.51,82.13-11.52Z" transform="translate(-783.68 -309.03)"/><path class="cls-5" d="M1179.05,760.68,1120.81,702s-15.49-16.7-26-6.15,9.36,26.83,9.36,26.83l57.36,57.78" transform="translate(-783.68 -309.03)"/><path class="cls-5" d="M1160.21,779.3,1102,720.63s-15.49-16.69-26-6.15,9.36,26.83,9.36,26.83l57.37,57.78" transform="translate(-783.68 -309.03)"/><path class="cls-5" d="M1142.21,798.23,1084,739.56s-15.49-16.7-26-6.15,9.36,26.82,9.36,26.82L1124.72,818" transform="translate(-783.68 -309.03)"/><path class="cls-5" d="M1124,817.54l-58.25-58.67s-15.49-16.7-26-6.15,9.36,26.83,9.36,26.83l57.37,57.78" transform="translate(-783.68 -309.03)"/><path class="cls-5" d="M1337.09,886.49c25.84-26,31-63.07,11.45-82.73l-13.48-13.58L1265,719.57s-11.34-10.77-20.83-1.21,1.94,21.08,1.94,21.08l14.15,14.25L1208,701s-8.13-8.2-15.38-.9l-60.36,60.8s-7,6.43,7.64,21.12L1255,898c19.52,19.66,56.3,14.5,82.13-11.53Z" transform="translate(-783.68 -309.03)"/><path class="cls-5" d="M1266.75,759.94l-58.24-58.67s-15.49-16.69-26-6.15S1191.9,722,1191.9,722l57.37,57.78" transform="translate(-783.68 -309.03)"/><path class="cls-5" d="M1247.9,778.56l-58.24-58.67s-15.49-16.69-26-6.15,9.36,26.83,9.36,26.83l57.36,57.78" transform="translate(-783.68 -309.03)"/><path class="cls-5" d="M1229.9,797.49l-58.24-58.67s-15.49-16.7-26-6.15,9.36,26.83,9.36,26.83l57.36,57.78" transform="translate(-783.68 -309.03)"/><path class="cls-5" d="M1211.72,816.8l-58.25-58.67s-15.49-16.69-26-6.15,9.36,26.83,9.36,26.83l57.36,57.78" transform="translate(-783.68 -309.03)"/><path class="cls-5" d="M1362.06,887.23c25.84-26,31-63.07,11.45-82.73L1360,790.92l-70.1-70.61s-11.34-10.77-20.83-1.21,1.94,21.07,1.94,21.07l14.15,14.26-52.27-52.65s-8.13-8.2-15.38-.9l-60.36,60.8s-7,6.42,7.64,21.12l115.11,116c19.52,19.67,56.29,14.51,82.13-11.52Z" transform="translate(-783.68 -309.03)"/><path class="cls-5" d="M1291.72,760.68,1233.48,702s-15.49-16.7-26-6.15,9.35,26.83,9.35,26.83l57.37,57.78" transform="translate(-783.68 -309.03)"/><path class="cls-5" d="M1272.87,779.3l-58.24-58.67s-15.49-16.69-26-6.15,9.36,26.83,9.36,26.83l57.36,57.78" transform="translate(-783.68 -309.03)"/><path class="cls-5" d="M1254.87,798.23l-58.24-58.67s-15.49-16.7-26-6.15,9.36,26.82,9.36,26.82L1237.39,818" transform="translate(-783.68 -309.03)"/><path class="cls-5" d="M1236.68,817.54l-58.24-58.67s-15.49-16.7-26-6.15,9.36,26.83,9.36,26.83l57.36,57.78" transform="translate(-783.68 -309.03)"/></svg>