<svg id="Layer_1" data-name="Layer 1" xmlns="http://www.w3.org/2000/svg" viewBox="0 0 604.63 604.63"><defs><style>.cls-1,.cls-2,.cls-3,.cls-4{fill:#fff;}.cls-2{stroke:#181616;}.cls-2,.cls-3,.cls-4{stroke-miterlimit:10;}.cls-2,.cls-3{stroke-width:5px;}.cls-3,.cls-4{stroke:#000;}.cls-4{stroke-width:4px;}</style></defs><rect class="cls-1" width="604.63" height="604.63"/><rect class="cls-2" x="13.67" y="152.23" width="577.28" height="370.74"/><rect class="cls-2" x="147.95" y="102.6" width="170.59" height="92.33"/><rect class="cls-2" x="171.93" y="123.21" width="122.63" height="51.09"/><rect class="cls-2" x="184.29" y="83.92" width="97.91" height="17.93"/><rect class="cls-2" x="351.23" y="134.31" width="97.91" height="17.93"/><rect class="cls-2" x="514.26" y="134.31" width="67.31" height="17.93"/><rect class="cls-2" x="366.57" y="116.22" width="69.35" height="17.93"/><circle class="cls-2" cx="475.64" cy="281.36" r="26.22"/><circle class="cls-2" cx="501.86" cy="401.33" r="52.15"/><rect class="cls-2" x="47.91" y="213.31" width="370.66" height="279.23"/><ellipse class="cls-2" cx="229.48" cy="354.31" rx="111.34" ry="127.85"/><path class="cls-2" d="M810.2,567.92s6,24.05,26.12,28.08,32.25-27,32.25-27" transform="translate(-657.52 -237.76)"/><line class="cls-2" x1="212.23" y1="415.45" x2="252.56" y2="415.45"/><ellipse class="cls-3" cx="181.85" cy="329.53" rx="29.2" ry="11.65"/><path class="cls-4" d="M848.25,513.59c17.4,11.64,22.27,42,22.27,42V506.32Z" transform="translate(-657.52 -237.76)"/><circle cx="181.89" cy="325.25" r="7.88"/><ellipse class="cls-3" cx="274.72" cy="329.53" rx="29.2" ry="11.65"/><path class="cls-4" d="M923.35,513.59c-17.39,11.64-22.26,42-22.26,42V506.32Z" transform="translate(-657.52 -237.76)"/><circle cx="274.69" cy="325.25" r="7.88"/><path class="cls-2" d="M832.35,720.27a35.33,35.33,0,0,0,35.33-35.33V635.49s.9-11.66-15.56-11.66H803.89s-15.55-.19-15.55,11.47v49.64a35.33,35.33,0,0,0,35.33,35.33Z" transform="translate(-657.52 -237.76)"/><path class="cls-2" d="M849.53,646.69v-49s.46-13.48-8.35-13.48c-7.7,0-7.49,11.56-7.31,14.47,0,.55,0,1.1,0,1.65V647.6" transform="translate(-657.52 -237.76)"/><path class="cls-2" d="M833.66,675.28V628.2s.44-13-8-13c-7.29,0-7.2,10.79-7,13.78q.06,1.13.06,2.25v44.89" transform="translate(-657.52 -237.76)"/><path class="cls-2" d="M818.55,676.16V629.08s.44-13-8-13c-7.29,0-7.2,10.79-7,13.79,0,.74.06,1.49.06,2.24V677" transform="translate(-657.52 -237.76)"/><path class="cls-2" d="M803.45,677.4V630.32s.43-13-8-13c-7.29,0-7.2,10.79-7,13.78,0,.75.06,1.5.06,2.25v44.89" transform="translate(-657.52 -237.76)"/></svg>