<svg id="Layer_1" data-name="Layer 1" xmlns="http://www.w3.org/2000/svg" viewBox="0 0 400 400"><defs><style>.cls-1{fill:#fff;}.cls-2{fill:#ffae3d;}.cls-2,.cls-3,.cls-4,.cls-5,.cls-6,.cls-7,.cls-8,.cls-9{stroke:#fff;}.cls-2,.cls-3,.cls-4,.cls-5,.cls-7,.cls-9{stroke-miterlimit:10;stroke-width:3.03px;}.cls-3{fill:none;}.cls-4{fill:#7b2127;}.cls-5{fill:#c62127;}.cls-6,.cls-7{fill:#548ea6;}.cls-6{stroke-miterlimit:10;stroke-width:3.03px;}.cls-8,.cls-9{fill:#a0d9cb;}.cls-8{stroke-miterlimit:10;stroke-width:3.03px;}</style></defs><rect class="cls-1" x="16.81" y="16.81" width="366.39" height="366.39"/><ellipse class="cls-2" cx="247.99" cy="175.03" rx="36.78" ry="48.12"/><ellipse class="cls-2" cx="247.99" cy="196.3" rx="9.57" ry="13.15"/><ellipse class="cls-2" cx="232.54" cy="167.34" rx="9.21" ry="4.61"/><ellipse class="cls-2" cx="263.45" cy="167.34" rx="9.21" ry="4.61"/><line class="cls-3" x1="241.69" y1="160.06" x2="235.15" y2="152.85"/><line class="cls-3" x1="253.02" y1="160.06" x2="259.63" y2="152.79"/><path class="cls-4" d="M77.53,159.88S122.37,221.09,123,285.32c0,0,.6,13.34-6.67,15.15S105.4,289,105.4,289s1.22,15.15-6.06,16.36S89,292,89,292s1.21,14.06-6.06,15.82-9.69-14-9.69-14Z"/><path class="cls-4" d="M67.83,43.53h87.51s5.33,122.11-84.17,150Z"/><path class="cls-4" d="M322,159.88s-44.85,61.21-45.45,125.44c0,0-.61,13.34,6.66,15.15S294.11,289,294.11,289s-1.21,15.15,6.06,16.36S310.47,292,310.47,292s-1.21,14.06,6.06,15.82,9.7-14,9.7-14Z"/><path class="cls-4" d="M331.68,43.53h-87.5s-5.34,122.11,84.17,150Z"/><path class="cls-5" d="M20.56,58.68,17.84,340.53s-.73,11.09,7.57,11.21,8.43-11.45,8.43-11.45,1.09,11.51,8.72,11.63,7.82-12.06,7.82-12.06S52,352,59.71,352.11s7.82-12.06,7.82-12.06.48,12.12,8.18,12.18,7.21-12.06,7.21-12.06l2.42-236.95Z"/><path class="cls-5" d="M21,18.69l115.68-.06s6.18,119.74-116.83,119.74Z"/><path class="cls-5" d="M377.56,58.38l5.09,281.85s.78,11.09-7.46,11.27-8.48-11.33-8.48-11.33-1,11.51-8.67,11.69-7.93-12-7.93-12-1.58,12.18-9.22,12.31-7.93-12-7.93-12-.37,12.12-8.06,12.3-7.34-12-7.34-12l-4.42-236.88Z"/><path class="cls-5" d="M377.62,18.69l-115.69-.06s-6.18,119.74,116.84,119.74Z"/><path class="cls-5" d="M199.88,18.63H89.22S121.52,72,199.58,72"/><path class="cls-5" d="M199.27,18.69H309.93s-32.3,53.38-110.35,53.38"/><ellipse class="cls-6" cx="149.04" cy="215.21" rx="51.81" ry="67.87" transform="translate(-59.92 57.53) rotate(-18.26)"/><path class="cls-7" d="M114.19,220.18s-.73-12.73,9.39-16.12S140,211.64,140,211.64s-8.06-.79-13.52,1S114.19,220.18,114.19,220.18Z"/><path class="cls-7" d="M136.13,194.73s-8.3-6.79-24.48,2"/><path class="cls-7" d="M180.24,198.42s-7-10.66-17.14-7.33-8.67,15.82-8.67,15.82,6-5.46,11.45-7.27S180.24,198.42,180.24,198.42Z"/><path class="cls-7" d="M147.52,191s2.67-10.36,20.85-13"/><path class="cls-7" d="M124.8,239.21S143,249.63,160,244.06,183,220,183,220s3.76,31.69-19.33,39.27S124.8,239.21,124.8,239.21Z"/><ellipse class="cls-8" cx="244.13" cy="309.97" rx="72.66" ry="55.45" transform="translate(-122.72 455.25) rotate(-73.38)"/><path class="cls-9" d="M212.73,284.48s-.43,13.63,10.54,17,17.27-8.6,17.27-8.6-8.6,1.09-14.48-.67S212.73,284.48,212.73,284.48Z"/><path class="cls-9" d="M247.21,277.33s-8.24-8-26.3-.07"/><path class="cls-9" d="M284.05,305.81s-7.15,11.63-18.12,8.36-9.69-16.67-9.69-16.67,6.6,5.64,12.48,7.4S284.05,305.81,284.05,305.81Z"/><path class="cls-9" d="M259.57,281.2s11.27-2.18,22,14.31"/><path class="cls-9" d="M200.85,339.74s19.21-11.75,37.51-6.24,25.33,25,25.33,25,3-34-21.88-41.45S200.85,339.74,200.85,339.74Z"/></svg>