<svg id="Layer_1" data-name="Layer 1" xmlns="http://www.w3.org/2000/svg" viewBox="0 0 400 400"><defs><style>.cls-1{fill:#65a2a3;}.cls-1,.cls-10,.cls-2,.cls-3,.cls-4,.cls-6,.cls-7,.cls-9{stroke:#fff;}.cls-1,.cls-10,.cls-12,.cls-2,.cls-3,.cls-4,.cls-6,.cls-7,.cls-9{stroke-miterlimit:10;}.cls-1,.cls-10,.cls-2,.cls-3,.cls-6,.cls-7,.cls-9{stroke-width:3.03px;}.cls-2,.cls-4,.cls-8{fill:#fff;}.cls-3{fill:#a0d9cb;}.cls-11,.cls-4,.cls-8{isolation:isolate;}.cls-4{font-size:18.19px;stroke-width:0.61px;font-family:Avenir-Light, Avenir;font-weight:300;}.cls-5{letter-spacing:-0.02em;}.cls-6{fill:#f66;}.cls-7{fill:#684657;}.cls-8{font-size:12.56px;}.cls-11,.cls-8{font-family:Avenir-Roman, Avenir;}.cls-9{fill:#c94e15;}.cls-10{fill:#fff8c9;}.cls-11{font-size:12.12px;fill:#2c5f72;}.cls-12{fill:none;stroke:#2c5f72;stroke-width:1.21px;}</style></defs><rect class="cls-1" x="72.61" y="19.06" width="254.78" height="361.89"/><rect class="cls-2" x="86.98" y="32.57" width="226.16" height="334.85"/><path class="cls-3" d="M98.86,32.94H301a11.8,11.8,0,0,1,11.82,11.82V57.67A11.8,11.8,0,0,1,301,69.49H98.86A11.79,11.79,0,0,1,87,57.67V44.76A11.83,11.83,0,0,1,98.86,32.94Z"/><text class="cls-4" transform="translate(123.61 57.52) scale(1.02 1)">Saying G<tspan class="cls-5" x="72.43" y="0">r</tspan><tspan x="78.16" y="0">oup Chat</tspan></text><ellipse class="cls-6" cx="110.92" cy="102.47" rx="12.06" ry="15.7"/><circle class="cls-6" cx="105.83" cy="99.38" r="1.39"/><circle class="cls-6" cx="116.32" cy="99.38" r="1.39"/><ellipse class="cls-6" cx="110.92" cy="262.31" rx="12.06" ry="15.7"/><circle class="cls-6" cx="105.83" cy="259.16" r="1.39"/><circle class="cls-6" cx="116.32" cy="259.16" r="1.39"/><path class="cls-7" d="M253.13,149.26H147.35a10.79,10.79,0,0,1-10.79-10.85V113.92l-7.69-6.36,7.69-6.18V98a10.79,10.79,0,0,1,10.79-10.85H253.13A10.79,10.79,0,0,1,263.92,98h0v40.43A10.91,10.91,0,0,1,253.13,149.26Z"/><text class="cls-8" transform="translate(145.54 98.39)">xxxxxxxxxxxxxxxxx</text><text class="cls-8" transform="translate(145.54 113.47)">xxxxxxxxxxxxxxxxx</text><text class="cls-8" transform="translate(145.54 128.54)">xxxxxxxxxxxxxxxxx</text><text class="cls-8" transform="translate(145.54 143.61)">xxxxxxxxxxxxxxxxx</text><path class="cls-7" d="M253.13,309.05H147.35a10.79,10.79,0,0,1-10.79-10.85h0V273.71l-7.69-6.36,7.69-6.19v-3.39a10.83,10.83,0,0,1,10.79-10.85H253.13a10.79,10.79,0,0,1,10.79,10.85h0V298.2A10.83,10.83,0,0,1,253.13,309.05Z"/><text class="cls-8" transform="translate(145.54 258.2)">xxxxxxxxxxxxxxxxx</text><text class="cls-8" transform="translate(145.54 273.27)">xxxxxxxxxxxxxxxxx</text><text class="cls-8" transform="translate(145.54 288.34)">xxxxxxxxxxxxxxxxx</text><text class="cls-8" transform="translate(145.54 303.42)">xxxxxxxxxxxxxxxxx</text><path class="cls-7" d="M257.31,193.57H143.47a6.92,6.92,0,0,1-6.91-7v-6.06L128.87,175l7.69-5.22v-6.3a7,7,0,0,1,6.91-7H257.31a6.92,6.92,0,0,1,6.91,7V186.6A7,7,0,0,1,257.31,193.57Z"/><text class="cls-8" transform="translate(145.84 170.4)">xxxxxxxxxxxxxxxxx</text><text class="cls-8" transform="translate(145.84 185.48)">xxxxxxxxxxxxxxxxx</text><path class="cls-7" d="M257.31,353.36H143.47a6.92,6.92,0,0,1-6.91-7v-6.06l-7.69-5.52,7.69-5.21v-6.3a7,7,0,0,1,6.91-7H257.31a6.93,6.93,0,0,1,6.91,7v23.09A6.92,6.92,0,0,1,257.31,353.36Z"/><text class="cls-8" transform="translate(145.84 330.21)">xxxxxxxxxxxxxxxxx</text><text class="cls-8" transform="translate(145.84 345.28)">xxxxxxxxxxxxxxxxx</text><path class="cls-9" d="M298.78,220.43s-10.49-8.37-12.55-14.67c-2-6-12.73-6.24-11.88,2.12C275.8,221.09,298.78,220.43,298.78,220.43Z"/><path class="cls-9" d="M298.72,222.55s-8.85,7.09-10.67,12.43c-1.7,5.09-10.79,5.27-10.07-1.76C279.2,221.94,298.72,222.55,298.72,222.55Z"/><path class="cls-10" d="M159.9,232h91.35c3.09,0,5.58-1.82,5.58-4v-2.13l7.45-4.54L256.83,217v-2.24c0-2.18-2.49-4-5.58-4H159.9c-3.09,0-5.58,1.82-5.58,4V228C154.32,230.19,156.87,232,159.9,232Z"/><text class="cls-11" transform="translate(224.27 226.37)">40’</text><path class="cls-12" d="M245.43,214.43a9.5,9.5,0,0,0,0,13.82"/><path class="cls-12" d="M249,216.12a7.11,7.11,0,0,0,0,10.43"/><path class="cls-12" d="M252.53,217.7a5,5,0,0,0-.25,7.09.83.83,0,0,0,.25.24"/></svg>