<?xml version="1.0" encoding="utf-8"?>
<!-- Generator: Adobe Illustrator 24.2.3, SVG Export Plug-In . SVG Version: 6.00 Build 0)  -->
<svg version="1.1" id="Layer_1" xmlns="http://www.w3.org/2000/svg" xmlns:xlink="http://www.w3.org/1999/xlink" x="0px" y="0px"
	 viewBox="0 0 604.6 604.6" style="enable-background:new 0 0 604.6 604.6;" xml:space="preserve">
<style type="text/css">
	.st0{fill:#FFFFFF;}
	.st1{fill:#FFFFFF;stroke:#8E8E8E;stroke-width:5;stroke-miterlimit:10;}
	.st2{fill:#FFFFFF;stroke:#000000;stroke-width:5;stroke-miterlimit:10;}
</style>
<rect class="st0" width="604.6" height="604.6"/>
<path class="st1" d="M208.2,193.1c0,0,108-46,37-175c0,0,144-1,107,179L208.2,193.1z"/>
<path class="st2" d="M303.7,358.1c0,0-34.1-1.8-58.6,17.5l29.7,47.2c0,0-68.1,25.3-68.1,100.4s97,73.4,97,73.4"/>
<path class="st2" d="M300.7,357.9c0,0,34.1-1.7,58.5,17.5l-29.7,47.2c0,0,68.1,25.3,68.1,100.5s-97,73.4-97,73.4"/>
<path class="st2" d="M251.5,559.2c0,0-22.7-14.1-24-14.5s-8,13.3-8,13.3s3.2,10.2,20.7,20.8"/>
<path class="st2" d="M251.5,559.2c0,0,23,13.5,24,14.5s-8.2,12.8-8.2,12.8s-10.4,2.4-27.8-8.1"/>
<ellipse transform="matrix(0.5174 -0.8557 0.8557 0.5174 -358.3692 485.052)" class="st2" cx="250.9" cy="560.3" rx="13.1" ry="28.4"/>
<path class="st2" d="M328.3,568.9c0,0-26,5.9-27.2,6.6s3.6,15.1,3.6,15.1s9.5,5,29.3,0.2"/>
<path class="st2" d="M328.3,569c0,0,25.9-6.6,27.2-6.6c1.4,0,3.1,14.9,3.1,14.9s-5.7,9-25.5,13.8"/>
<ellipse transform="matrix(0.972 -0.235 0.235 0.972 -124.766 93.1729)" class="st2" cx="328.6" cy="570.1" rx="28.4" ry="13.1"/>
<path class="st2" d="M283.2,503.1c1.8,7.7,9,11.7,16.8,11.7c10.1,0,16.7-3.1,16.7-11.5c0-6-3.3-10.3-16.6-13.4
	c-13.6-3-20.7-6.7-20.7-15.8c0-8.5,7.9-14.8,20.2-14.8c16.2,0,20.8,8.4,21.4,13.6h-5.4c-1.8-5.5-6-9.7-16.1-9.7
	c-10.5,0-14.4,4.9-14.4,10.3c0,5.9,3.9,9.3,15.7,11.9c17.3,3.9,21.7,9.5,21.7,17.4c0,10-8,15.9-22.8,15.8
	c-13-0.1-20.7-6.6-21.8-15.7L283.2,503.1z M298.1,527v-74h4.9v74H298.1z"/>
<path class="st2" d="M445.9,238.5c0,0-68.7-57.6-0.7-182.7c0,0-100.2-15.1-100.3,172.7L445.9,238.5z"/>
<path class="st2" d="M407.1,157.8c0,0,16.1,48.7-31.7,76.5l25,1.8c0,0,22-18.2,21-41.6S407.1,157.8,407.1,157.8z"/>
<path class="st2" d="M510.1,230.7c0,0-50.1-26.8-15-97.5c0,0-67.7-2.2-52.8,98L510.1,230.7z"/>
<path class="st2" d="M391,231c0,0,47.7-22.3,14.5-80.6c0,0,64.3-2.1,49.9,80.8L391,231z"/>
<path class="st2" d="M232.3,15.9c0,0,55.4,130.3-73,216h70.5c0,0,57.9-54.3,50.3-118.3S232.3,15.9,232.3,15.9z"/>
<path class="st2" d="M167.7,67.8c0,0,38.3,97.4-50.5,161.4h48.8c0,0,40.1-40.6,34.8-88.3S167.7,67.8,167.7,67.8z"/>
<path class="st2" d="M131.2,139.1c0,0,18.4,61.1-41.4,94.3l30.7,3c0,0,27.6-22,27.2-51.2S131.2,139.1,131.2,139.1z"/>
<path class="st2" d="M107.4,229.8c0,0,59.5-26.2,20.4-99.9c0,0,79.4-0.6,59,102.2L107.4,229.8z"/>
<path class="st2" d="M133.7,224.3c0,0,94.1-43.3,32.2-164.7c0,0,125.5-0.9,93.2,168.4L133.7,224.3z"/>
<path class="st2" d="M183.2,228.7c0,0,136-57.9,46.6-220.4c0,0,181.3-1.3,134.7,225.4L183.2,228.7z"/>
<rect x="81.2" y="222.4" class="st2" width="444.5" height="22.7"/>
<g>
	<g>
		<path class="st2" d="M44.1,306.9c0,0-6.4,15.3,5.3,24.4c11.7,9.1,124.1,89.1,124.1,89.1s27.8,17.8,48.6-5.8
			c20.7-23.6,7.5-49-2.9-56.9S62.4,245.1,62.4,245.1s-16.5-6.3-24.4,5.3c-8,11.6-20.3,31-20.3,31S17.1,291.4,44.1,306.9z"/>
		<path class="st2" d="M125.3,298.7L52,246.8c0,0-19.7-15-29-1.7c-9.3,13.3,15,27,15,27l72.2,51.1"/>
		<path class="st2" d="M117.1,308.2l-73.3-51.9c0,0-19.7-15-29-1.7c-9.3,13.3,15,27,15,27l72.2,51.1"/>
		<path class="st2" d="M113.2,324l-73.3-51.9c0,0-19.7-15-29-1.7c-9.3,13.3,15,27,15,27l72.2,51.1"/>
		<path class="st2" d="M113,342.6l-48.7-35.9c0,0-19-15-28-2s14.5,26.9,14.5,26.9l46.4,34.2"/>
	</g>
	<g>
		<path class="st2" d="M587.4,281.4c0,0-12.3-19.4-20.3-31c-8-11.6-24.4-5.3-24.4-5.3S396.3,349.7,385.9,357.6
			c-10.4,7.9-23.6,33.3-2.9,56.9c20.7,23.6,48.6,5.8,48.6,5.8s112.3-79.9,124.1-89.1c11.7-9.1,5.3-24.4,5.3-24.4
			C588,291.4,587.4,281.4,587.4,281.4z"/>
		<path class="st2" d="M494.9,323.1l72.2-51.1c0,0,24.3-13.7,15-27c-9.3-13.3-29,1.7-29,1.7l-73.3,51.9"/>
		<path class="st2" d="M503,332.7l72.2-51.1c0,0,24.3-13.7,15-27c-9.3-13.3-29,1.7-29,1.7L488,308.2"/>
		<path class="st2" d="M506.9,348.5l72.2-51.1c0,0,24.3-13.7,15-27c-9.3-13.3-29,1.7-29,1.7L491.9,324"/>
		<path class="st2" d="M507.9,365.8l46.4-34.2c0,0,23.5-13.8,14.5-26.9s-28,2-28,2l-48.7,35.9"/>
	</g>
</g>
</svg>
