<?xml version="1.0" encoding="utf-8"?>
<!-- Generator: Adobe Illustrator 24.2.3, SVG Export Plug-In . SVG Version: 6.00 Build 0)  -->
<svg version="1.1" id="Layer_1" xmlns="http://www.w3.org/2000/svg" xmlns:xlink="http://www.w3.org/1999/xlink" x="0px" y="0px"
	 viewBox="0 0 604.6 604.6" style="enable-background:new 0 0 604.6 604.6;" xml:space="preserve">
<style type="text/css">
	.st0{fill:#FFFFFF;}
	.st1{fill:none;stroke:#000000;stroke-width:5;stroke-miterlimit:10;}
	.st2{font-family:'Apple-Chancery';}
	.st3{font-size:44.75px;}
	.st4{fill:none;stroke:#000000;stroke-miterlimit:10;}
	.st5{fill:#FF0000;stroke:#000000;stroke-width:5;stroke-miterlimit:10;}
	.st6{font-size:20.72px;}
	.st7{stroke:#000000;stroke-miterlimit:10;}
	.st8{fill:none;stroke:#000000;stroke-width:3;stroke-miterlimit:10;}
	.st9{fill:#FFFFFF;stroke:#000000;stroke-width:5;stroke-miterlimit:10;}
	.st10{font-size:19.2446px;}
</style>
<rect class="st0" width="604.6" height="604.6"/>
<rect x="92.2" y="3.8" class="st1" width="420.3" height="597"/>
<rect x="115.8" y="26.1" class="st1" width="373.1" height="552.4"/>
<path class="st1" d="M135.4,26.8h333.4c10.8,0,19.5,8.7,19.5,19.5v21.3c0,10.8-8.7,19.5-19.5,19.5H135.4c-10.8,0-19.5-8.7-19.5-19.5
	V46.3C115.9,35.5,124.6,26.8,135.4,26.8z"/>
<text transform="matrix(1.02 0 0 1 236.77 66.5698)" class="st2 st3">Saying</text>
<text transform="matrix(1.02 0 0 1 236.77 66.5698)" class="st4 st2 st3">Saying</text>
<g>
	<ellipse class="st1" cx="155.3" cy="149.5" rx="19.9" ry="25.9"/>
	<circle class="st5" cx="147" cy="144.3" r="2.3"/>
	<circle class="st5" cx="164.2" cy="144.3" r="2.3"/>
	<path class="st1" d="M389.9,226.6H215.4c-9.9,0-17.8-8-17.8-17.9v-40.4l-12.7-10.5l12.7-10.2v-5.6c0-9.9,7.9-17.9,17.8-17.9h174.5
		c9.9,0,17.8,8,17.8,17.9v66.7C407.7,218.6,399.8,226.6,389.9,226.6z"/>
	<text transform="matrix(1 0 0 1 212.42 142.72)" class="st2 st6">xxxxxxxxxxxxxxxxx</text>
	<text transform="matrix(1 0 0 1 212.42 142.72)" class="st4 st2 st6">xxxxxxxxxxxxxxxxx</text>
	<text transform="matrix(1 0 0 1 212.42 167.59)" class="st2 st6">xxxxxxxxxxxxxxxxx</text>
	<text transform="matrix(1 0 0 1 212.42 167.59)" class="st4 st2 st6">xxxxxxxxxxxxxxxxx</text>
	<text transform="matrix(1 0 0 1 212.42 192.45)" class="st2 st6">xxxxxxxxxxxxxxxxx</text>
	<text transform="matrix(1 0 0 1 212.42 192.45)" class="st4 st2 st6">xxxxxxxxxxxxxxxxx</text>
	<text transform="matrix(1 0 0 1 212.42 217.32)" class="st2 st6">xxxxxxxxxxxxxxxxx</text>
	<text transform="matrix(1 0 0 1 212.42 217.32)" class="st4 st2 st6">xxxxxxxxxxxxxxxxx</text>
	<path class="st1" d="M396.8,299.7H209.1c-6.3,0-11.5-5.1-11.5-11.5l0,0v-10l-12.7-9.1l12.7-8.6v-10.4c0-6.3,5.1-11.5,11.5-11.5l0,0
		h187.8c6.3,0,11.5,5.1,11.5,11.4c0,0,0,0,0,0v38.1C408.3,294.6,403.2,299.7,396.8,299.7C396.9,299.7,396.8,299.7,396.8,299.7z"/>
	<text transform="matrix(1 0 0 1 212.92 261.52)" class="st2 st6">xxxxxxxxxxxxxxxxx</text>
	<text transform="matrix(1 0 0 1 212.92 261.52)" class="st4 st2 st6">xxxxxxxxxxxxxxxxx</text>
	<text transform="matrix(1 0 0 1 212.92 286.39)" class="st2 st6">xxxxxxxxxxxxxxxxx</text>
	<text transform="matrix(1 0 0 1 212.92 286.39)" class="st4 st2 st6">xxxxxxxxxxxxxxxxx</text>
</g>
<g>
	<ellipse class="st1" cx="155.3" cy="413.1" rx="19.9" ry="25.9"/>
	<circle class="st5" cx="147" cy="407.9" r="2.3"/>
	<circle class="st5" cx="164.2" cy="407.9" r="2.3"/>
	<path class="st1" d="M389.9,490.2H215.4c-9.9,0-17.8-8-17.8-17.9c0,0,0,0,0,0V432l-12.7-10.5l12.7-10.2v-5.6
		c0-9.9,7.9-17.9,17.8-17.9c0,0,0,0,0,0h174.5c9.9,0,17.8,8,17.8,17.9c0,0,0,0,0,0v66.7C407.7,482.2,399.8,490.2,389.9,490.2
		C389.9,490.2,389.9,490.2,389.9,490.2z"/>
	<text transform="matrix(1 0 0 1 212.42 406.35)" class="st2 st6">xxxxxxxxxxxxxxxxx</text>
	<text transform="matrix(1 0 0 1 212.42 406.35)" class="st4 st2 st6">xxxxxxxxxxxxxxxxx</text>
	<text transform="matrix(1 0 0 1 212.42 431.22)" class="st2 st6">xxxxxxxxxxxxxxxxx</text>
	<text transform="matrix(1 0 0 1 212.42 431.22)" class="st4 st2 st6">xxxxxxxxxxxxxxxxx</text>
	<text transform="matrix(1 0 0 1 212.42 456.08)" class="st2 st6">xxxxxxxxxxxxxxxxx</text>
	<text transform="matrix(1 0 0 1 212.42 456.08)" class="st4 st2 st6">xxxxxxxxxxxxxxxxx</text>
	<text transform="matrix(1 0 0 1 212.42 480.95)" class="st2 st6">xxxxxxxxxxxxxxxxx</text>
	<text transform="matrix(1 0 0 1 212.42 480.95)" class="st4 st2 st6">xxxxxxxxxxxxxxxxx</text>
	<path class="st1" d="M396.8,563.3H209.1c-6.3,0-11.4-5.1-11.5-11.4c0,0,0,0,0,0V542l-12.7-9.1l12.7-8.6v-10.5
		c0-6.3,5.1-11.5,11.5-11.5l0,0h187.8c6.3,0,11.5,5.1,11.5,11.4c0,0,0,0,0,0v38.1C408.3,558.2,403.2,563.3,396.8,563.3
		C396.9,563.3,396.8,563.3,396.8,563.3z"/>
	<text transform="matrix(1 0 0 1 212.92 525.15)" class="st2 st6">xxxxxxxxxxxxxxxxx</text>
	<text transform="matrix(1 0 0 1 212.92 525.15)" class="st4 st2 st6">xxxxxxxxxxxxxxxxx</text>
	<text transform="matrix(1 0 0 1 212.92 550.02)" class="st2 st6">xxxxxxxxxxxxxxxxx</text>
	<text transform="matrix(1 0 0 1 212.92 550.02)" class="st4 st2 st6">xxxxxxxxxxxxxxxxx</text>
</g>
<g>
	<path class="st1" d="M465.3,344c0,0-17.3-13.8-20.7-24.2c-3.3-9.9-21-10.3-19.6,3.5C427.3,345.2,465.3,344,465.3,344z"/>
	<path class="st1" d="M465.1,347.5c0,0-14.7,11.7-17.6,20.5c-2.8,8.4-17.8,8.7-16.6-2.9C432.9,346.5,465.1,347.5,465.1,347.5z"/>
	<path class="st1" d="M236.2,363.1h150.6c5.1,0,9.2-3,9.2-6.6v-3.5l12.3-7.5l-12.3-7.2v-3.7c0-3.6-4.1-6.6-9.2-6.6H236.2
		c-5.1,0-9.2,3-9.2,6.6v21.9C227,360.1,231.1,363.1,236.2,363.1z"/>
	<text transform="matrix(1 0 0 1 338.34 349.99)" class="st7 st2 st6">40’</text>
	<path class="st8" d="M377.2,334.2c-6.8,6.5-6.3,17.3,0,22.8"/>
	<path class="st8" d="M383,337c-5.2,4.9-4.8,13.1,0,17.2"/>
	<path class="st8" d="M389,339.5c-3.3,3.1-3.5,8.4-0.4,11.7c0.1,0.1,0.3,0.3,0.4,0.4"/>
</g>
<g>
	<g>
		<path class="st9" d="M488.3,126.8v-24.6H368.6c0,0-30.3-3-30.3,24.6"/>
		<path class="st9" d="M488.3,121.2v24.6H368.6c0,0-30.3,3-30.3-24.6"/>
	</g>
	<text transform="matrix(0.9366 0 0 1 344.4453 128.2041)" class="st7 st2 st10">99+New Messages</text>
</g>
</svg>
