<svg id="Layer_1" data-name="Layer 1" xmlns="http://www.w3.org/2000/svg" viewBox="0 0 606.59 604.63"><defs><style>.cls-1,.cls-2{fill:#fff;}.cls-2,.cls-4{stroke:#181616;stroke-miterlimit:10;}.cls-2{stroke-width:5px;}.cls-3{fill:#181616;}.cls-4{fill:none;stroke-width:9px;}</style></defs><rect class="cls-1" x="0.82" width="604.63" height="604.63"/><path class="cls-2" d="M940.86,271.29c-46.15,0-83.57,28.27-83.57,63.13V483.7s.59,19.68,17.54,19.68S891.78,483,891.78,483V551s0,14.54,12.94,14.54h107.81s11.9.51,11.9-25.55V334.42c0-34.86-37.42-63.13-83.57-63.13Z" transform="translate(-637.75 -241.05)"/><path class="cls-2" d="M891.49,446.31v104s-1,28.64,17.73,28.64,15.43-32.14,15.43-32.14V444.38" transform="translate(-637.75 -241.05)"/><path class="cls-2" d="M924.83,446.63v104s-1,28.63,17.73,28.63S958,547.16,958,547.16V444.7" transform="translate(-637.75 -241.05)"/><path class="cls-2" d="M957.68,445.93V550s-1,28.63,17.74,28.63,15.42-32.14,15.42-32.14V444" transform="translate(-637.75 -241.05)"/><path class="cls-2" d="M991.05,445.05v104s-1,28.63,17.73,28.63,15.43-32.14,15.43-32.14V443.12" transform="translate(-637.75 -241.05)"/><path class="cls-2" d="M1227.69,769.6c23.08-40,17.31-86.51-12.89-103.94l-20.84-12L1085.52,591s-17.33-9.34-25.81,5.34,9.21,24.9,9.21,24.9l21.89,12.63L1010,587.22s-12.59-7.28-19.06,3.93L937,684.52s-6.39,10.05,16.17,23.08l178.07,102.8c30.19,17.44,73.38-.83,96.45-40.8Z" transform="translate(-637.75 -241.05)"/><path class="cls-2" d="M1100.81,639.33l-90.1-52s-24.31-15.15-33.66,1,20.12,29.43,20.12,29.43L1085.9,669" transform="translate(-637.75 -241.05)"/><path class="cls-2" d="M1083.86,668l-90.1-52s-24.31-15.15-33.66,1,20.12,29.43,20.12,29.43L1069,697.72" transform="translate(-637.75 -241.05)"/><path class="cls-2" d="M1068,696.84l-90.1-52s-24.31-15.16-33.66,1S964.4,675.3,964.4,675.3l88.73,51.23" transform="translate(-637.75 -241.05)"/><path class="cls-2" d="M1052.12,726.18l-90.1-52s-24.32-15.15-33.66,1,20.12,29.43,20.12,29.43l88.73,51.23" transform="translate(-637.75 -241.05)"/><path class="cls-2" d="M654.39,769.6c23.08,40,66.26,58.24,96.46,40.8l20.85-12,108.43-62.61s16.75-10.34,8.27-25-26.15-4.48-26.15-4.48L840.36,718.9l80.84-46.68s12.6-7.26,6.13-18.47l-53.91-93.37s-5.51-10.56-28.08,2.47L667.28,665.66c-30.19,17.43-36,64-12.89,103.94Z" transform="translate(-637.75 -241.05)"/><path class="cls-2" d="M830.65,724.85l90.1-52s25.28-13.48,15.93-29.68-35.55,2.71-35.55,2.71L812.4,697.1" transform="translate(-637.75 -241.05)"/><path class="cls-2" d="M814.26,695.81l90.1-52s25.28-13.48,15.93-29.67-35.55,2.71-35.55,2.71L796,668.06" transform="translate(-637.75 -241.05)"/><path class="cls-2" d="M797.22,667.71l90.1-52S912.6,602.21,903.25,586s-35.55,2.71-35.55,2.71L779,640" transform="translate(-637.75 -241.05)"/><path class="cls-2" d="M779.78,639.25l90.09-52s25.29-13.48,15.94-29.67-35.55,2.71-35.55,2.71L761.52,611.5" transform="translate(-637.75 -241.05)"/><polygon points="293.95 149.08 275.8 139.89 257.93 149.63 261.07 129.52 246.28 115.54 266.37 112.31 275.1 93.92 284.38 112.03 304.56 114.65 290.21 129.08 293.95 149.08"/><polygon points="322.2 177.91 317.4 173.6 311.13 175.12 313.74 169.22 310.36 163.73 316.77 164.39 320.95 159.47 322.31 165.78 328.27 168.24 322.69 171.47 322.2 177.91"/><polygon points="353.32 155.52 347.56 152.6 341.9 155.69 342.89 149.32 338.21 144.89 344.58 143.86 347.34 138.04 350.28 143.78 356.68 144.61 352.13 149.18 353.32 155.52"/><polygon points="356.41 117.18 350.1 115.85 345.43 120.3 344.74 113.89 339.07 110.82 344.96 108.18 346.12 101.84 350.45 106.62 356.84 105.77 353.63 111.36 356.41 117.18"/><polygon points="326.86 90 320.43 90.36 317.06 95.86 314.74 89.85 308.47 88.35 313.47 84.28 312.95 77.85 318.37 81.35 324.32 78.88 322.67 85.11 326.86 90"/><circle cx="112.37" cy="473.79" r="41.06"/><circle class="cls-3" cx="409.19" cy="513.26" r="2.58"/><circle class="cls-3" cx="415.85" cy="501.72" r="2.58"/><circle class="cls-3" cx="422.51" cy="490.18" r="2.58"/><circle class="cls-3" cx="429.18" cy="478.64" r="2.58"/><circle class="cls-3" cx="435.84" cy="467.1" r="2.58"/><circle class="cls-3" cx="442.5" cy="455.56" r="2.58"/><circle class="cls-3" cx="418.55" cy="510.97" r="2.58"/><circle class="cls-3" cx="425.21" cy="499.43" r="2.58"/><circle class="cls-3" cx="431.88" cy="487.89" r="2.58"/><circle class="cls-3" cx="438.54" cy="476.35" r="2.58"/><circle class="cls-3" cx="445.2" cy="464.81" r="2.58"/><circle class="cls-3" cx="421.53" cy="520.38" r="2.58"/><circle class="cls-3" cx="428.19" cy="508.84" r="2.58"/><circle class="cls-3" cx="434.85" cy="497.3" r="2.58"/><circle class="cls-3" cx="441.51" cy="485.76" r="2.58"/><circle class="cls-3" cx="448.18" cy="474.22" r="2.58"/><circle class="cls-3" cx="454.84" cy="462.68" r="2.58"/><circle class="cls-3" cx="430.89" cy="518.09" r="2.58"/><circle class="cls-3" cx="437.55" cy="506.55" r="2.58"/><circle class="cls-3" cx="444.22" cy="495.01" r="2.58"/><circle class="cls-3" cx="450.88" cy="483.47" r="2.58"/><circle class="cls-3" cx="457.54" cy="471.93" r="2.58"/><circle class="cls-3" cx="433.76" cy="527.44" r="2.58"/><circle class="cls-3" cx="440.42" cy="515.9" r="2.58"/><circle class="cls-3" cx="447.08" cy="504.36" r="2.58"/><circle class="cls-3" cx="453.75" cy="492.82" r="2.58"/><circle class="cls-3" cx="460.41" cy="481.28" r="2.58"/><circle class="cls-3" cx="467.07" cy="469.74" r="2.58"/><circle class="cls-3" cx="443.12" cy="525.16" r="2.58"/><circle class="cls-3" cx="449.78" cy="513.62" r="2.58"/><circle class="cls-3" cx="456.45" cy="502.08" r="2.58"/><circle class="cls-3" cx="463.11" cy="490.54" r="2.58"/><circle class="cls-3" cx="469.77" cy="478.99" r="2.58"/><circle class="cls-3" cx="445.55" cy="534.25" r="2.58"/><circle class="cls-3" cx="452.21" cy="522.71" r="2.58"/><circle class="cls-3" cx="458.87" cy="511.17" r="2.58"/><circle class="cls-3" cx="465.53" cy="499.63" r="2.58"/><circle class="cls-3" cx="472.2" cy="488.09" r="2.58"/><circle class="cls-3" cx="478.86" cy="476.55" r="2.58"/><circle class="cls-3" cx="454.91" cy="531.96" r="2.58"/><circle class="cls-3" cx="461.57" cy="520.42" r="2.58"/><circle class="cls-3" cx="468.24" cy="508.88" r="2.58"/><circle class="cls-3" cx="474.9" cy="497.34" r="2.58"/><circle class="cls-3" cx="481.56" cy="485.8" r="2.58"/><circle class="cls-3" cx="457.45" cy="541.12" r="2.58"/><circle class="cls-3" cx="464.11" cy="529.58" r="2.58"/><circle class="cls-3" cx="470.77" cy="518.04" r="2.58"/><circle class="cls-3" cx="477.44" cy="506.5" r="2.58"/><circle class="cls-3" cx="484.1" cy="494.96" r="2.58"/><circle class="cls-3" cx="490.76" cy="483.42" r="2.58"/><line class="cls-4" x1="445.84" y1="449.1" x2="489.03" y2="374.29"/><line class="cls-4" x1="462.04" y1="458.45" x2="505.23" y2="383.64"/><line class="cls-4" x1="478.23" y1="467.8" x2="521.42" y2="392.99"/><line class="cls-4" x1="494.43" y1="477.15" x2="537.62" y2="402.34"/><line class="cls-4" x1="470.61" y1="555.81" x2="553.81" y2="411.69"/><line class="cls-4" x1="486.8" y1="565.16" x2="570.01" y2="421.04"/><line class="cls-4" x1="503" y1="574.51" x2="586.2" y2="430.39"/></svg>