<svg id="Layer_1" data-name="Layer 1" xmlns="http://www.w3.org/2000/svg" viewBox="0 0 607 604.63"><defs><style>.cls-1,.cls-2{fill:#fff;}.cls-2{stroke:#000;stroke-miterlimit:10;stroke-width:5px;}</style></defs><rect class="cls-1" x="0.76" width="604.63" height="604.63"/><ellipse class="cls-2" cx="382.26" cy="261.17" rx="60.66" ry="79.43"/><ellipse class="cls-2" cx="382.26" cy="296.19" rx="15.75" ry="21.72"/><ellipse class="cls-2" cx="356.74" cy="248.39" rx="15.21" ry="7.6"/><ellipse class="cls-2" cx="407.79" cy="248.39" rx="15.21" ry="7.6"/><line class="cls-2" x1="371.95" y1="236.44" x2="361.08" y2="224.5"/><line class="cls-2" x1="390.6" y1="236.39" x2="401.46" y2="224.45"/><path class="cls-2" d="M480.5,405.5s74,101,75,207c0,0,1,22-11,25s-18-19-18-19,2,25-10,27-17-22-17-22,2,23.19-10,26.09-16-23.09-16-23.09Z" transform="translate(-379.5 -169.4)"/><path class="cls-2" d="M464.5,213.5H608.9S617.72,415,470,461Z" transform="translate(-379.5 -169.4)"/><path class="cls-2" d="M883.91,405.5s-74,101-75,207c0,0-1,22,11,25s18-19,18-19-2,25,10,27,17-22,17-22-2,23.19,10,26.09,16-23.09,16-23.09Z" transform="translate(-379.5 -169.4)"/><path class="cls-2" d="M899.91,213.5H755.51S746.69,415,894.39,461Z" transform="translate(-379.5 -169.4)"/><path class="cls-2" d="M386.5,238.49,382,703.61s-1.18,18.3,12.48,18.45,13.85-18.86,13.85-18.86,1.76,19,14.44,19.15,12.89-19.86,12.89-19.86,2.73,20,15.41,20.16S464,702.79,464,702.79s.77,20,13.46,20.14,11.91-19.87,11.91-19.87l4-391Z" transform="translate(-379.5 -169.4)"/><path class="cls-2" d="M387.21,172.5l190.87-.1S588.28,370,385.28,370Z" transform="translate(-379.5 -169.4)"/><path class="cls-2" d="M975.55,238.05,984,703.11s1.34,18.29-12.32,18.56-14-18.74-14-18.74-1.6,19-14.28,19.28-13.06-19.75-13.06-19.75-2.56,20.06-15.24,20.3S902,703,902,703s-.6,20-13.28,20.26-12.08-19.77-12.08-19.77l-7.3-390.93Z" transform="translate(-379.5 -169.4)"/><path class="cls-2" d="M975.67,172.5l-190.86-.1S774.61,370,977.61,370Z" transform="translate(-379.5 -169.4)"/><path class="cls-2" d="M682.41,172.4H499.81s53.3,88.1,182.11,88.1" transform="translate(-379.5 -169.4)"/><path class="cls-2" d="M681.43,172.5H864s-53.3,88.1-182.11,88.1" transform="translate(-379.5 -169.4)"/><ellipse class="cls-2" cx="598.69" cy="496.72" rx="85.53" ry="112" transform="translate(-504.99 43.2) rotate(-18.26)"/><path class="cls-2" d="M541,505s-1.23-21,15.53-26.57,27,12.54,27,12.54-13.3-1.33-22.33,1.64S541,505,541,505Z" transform="translate(-379.5 -169.4)"/><path class="cls-2" d="M577.21,463.06s-13.71-11.2-40.37,3.31" transform="translate(-379.5 -169.4)"/><path class="cls-2" d="M650,469.13S638.48,451.49,621.72,457s-14.25,26.15-14.25,26.15,9.9-9,18.92-12S650,469.13,650,469.13Z" transform="translate(-379.5 -169.4)"/><path class="cls-2" d="M596,456.94s4.34-17.16,34.41-21.36" transform="translate(-379.5 -169.4)"/><path class="cls-2" d="M558.54,536.41s30.09,17.24,58.11,8,37.94-39.68,37.94-39.68,6.16,52.29-31.86,64.84S558.54,536.41,558.54,536.41Z" transform="translate(-379.5 -169.4)"/><ellipse class="cls-2" cx="755.21" cy="653.01" rx="119.88" ry="91.54" transform="translate(-465.99 1020.57) rotate(-73.38)"/><path class="cls-2" d="M703.63,611.09S703,633.63,721.07,639s28.51-14.24,28.51-14.24-14.19,1.83-23.94-1.08S703.63,611.09,703.63,611.09Z" transform="translate(-379.5 -169.4)"/><path class="cls-2" d="M760.49,599.34s-13.59-13.2-43.35-.14" transform="translate(-379.5 -169.4)"/><path class="cls-2" d="M821.3,646.27s-11.8,19.23-29.9,13.83-16-27.54-16-27.54,10.87,9.31,20.61,12.22S821.3,646.27,821.3,646.27Z" transform="translate(-379.5 -169.4)"/><path class="cls-2" d="M781,605.76s18.6-3.59,36.33,23.64" transform="translate(-379.5 -169.4)"/><path class="cls-2" d="M684,702.28s31.67-19.36,61.92-10.33,41.81,41.29,41.81,41.29,5-56.14-36.08-68.39S684,702.28,684,702.28Z" transform="translate(-379.5 -169.4)"/></svg>